SplineFontDB: 3.0
FontName: BetecknaLowerCaseBoldCondensed
FullName: BetecknaLowerCase
FamilyName: BetecknaLowerCase
Weight: Medium
Copyright: Drawn by Johan Mattsson
Version: 
ItalicAngle: 0
UnderlinePosition: -200
UnderlineWidth: 50
Ascent: 800
Descent: 200
LayerCount: 2
Layer: 0 1 "Back"  1
Layer: 1 1 "Fore"  0
XUID: [1021 880 1988980000 3066022]
FSType: 0
OS2Version: 3
OS2_WeightWidthSlopeOnly: 0
OS2_UseTypoMetrics: 1
CreationTime: 1176121501
ModificationTime: 1406153154
PfmFamily: 17
TTFWeight: 500
TTFWidth: 5
LineGap: 90
VLineGap: 0
Panose: 2 0 6 3 0 0 0 0 0 0
OS2TypoAscent: 0
OS2TypoAOffset: 1
OS2TypoDescent: 0
OS2TypoDOffset: 1
OS2TypoLinegap: 0
OS2WinAscent: 0
OS2WinAOffset: 1
OS2WinDescent: 0
OS2WinDOffset: 1
HheadAscent: 0
HheadAOffset: 1
HheadDescent: 0
HheadDOffset: 1
OS2SubXSize: 650
OS2SubYSize: 699
OS2SubXOff: 0
OS2SubYOff: 479
OS2SupXSize: 650
OS2SupYSize: 699
OS2SupXOff: 0
OS2SupYOff: 0
OS2StrikeYSize: 49
OS2StrikeYPos: 258
OS2Vendor: 'PfEd'
OS2CodePages: 00000010.01140000
OS2UnicodeRanges: 800000cf.40000000.00000000.00000000
Lookup: 4 0 1 "'liga' Standard Ligatures in Latin lookup 0"  {"'liga' Standard Ligatures in Latin lookup 0 subtable"  } ['liga' ('latn' <'dflt' > ) ]
Lookup: 258 0 0 "'kern' Horizontal Kerning in Latin lookup 0"  {"'kern' Horizontal Kerning in Latin lookup 0 subtable"  } ['kern' ('latn' <'dflt' > ) ]
DEI: 91125
ShortTable: maxp 16
  1
  0
  182
  92
  5
  70
  4
  2
  0
  1
  1
  0
  64
  0
  2
  1
EndShort
LangName: 1033 "" "" "" "FontForge 2.0 : BetecknaLowerCase : 4-10-2008" 
GaspTable: 1 65535 2 0
Encoding: UnicodeBmp
UnicodeInterp: none
NameList: Adobe Glyph List
DisplaySize: -72
AntiAlias: 1
FitToEm: 1
Grid
-1000 142 m 0
 2000 142 l 0
EndSplineSet
BeginChars: 65539 190

StartChar: .notdef
Encoding: 65536 -1 0
Width: 450
Flags: W
LayerCount: 2
Fore
SplineSet
74 -20 m 1,0,-1
 74 553 l 1,1,-1
 426 553 l 1,2,-1
 426 -20 l 1,3,-1
 74 -20 l 1,0,-1
146 70 m 1,4,-1
 354 70 l 1,5,-1
 354 463 l 1,6,-1
 146 463 l 1,7,-1
 146 70 l 1,4,-1
EndSplineSet
EndChar

StartChar: exclam
Encoding: 33 33 4
Width: 212
GlyphClass: 2
Flags: W
LayerCount: 2
Fore
SplineSet
65.8164 713 m 1,0,-1
 169.782 713 l 1,1,-1
 165.42 232 l 1,2,-1
 60.5811 232 l 1,3,-1
 65.8164 713 l 1,0,-1
49.5996 60 m 0,4,5
 49.5996 96.1709 49.5996 96.1709 69.5596 117.655 c 0,6,7
 88.3047 137.832 88.3047 137.832 111.637 138.495 c 0,8,9
 135.234 139.165 135.234 139.165 154.243 119.364 c 0,10,11
 174.4 98.3672 174.4 98.3672 174.4 62 c 0,12,13
 174.4 24.2021 174.4 24.2021 154.812 1.75684 c 0,14,15
 135.824 -20 135.824 -20 112 -20 c 0,16,17
 88.3164 -20 88.3164 -20 69.3701 1.05176 c 0,18,19
 49.5996 23.0186 49.5996 23.0186 49.5996 60 c 0,4,5
EndSplineSet
EndChar

StartChar: quotedbl
Encoding: 34 34 5
Width: 305
GlyphClass: 2
Flags: W
LayerCount: 2
Fore
SplineSet
216.807 553.503 m 2,0,1
 214.701 564.906 214.701 564.906 196.797 619.402 c 0,2,3
 177.308 678.718 177.308 678.718 177.994 699.438 c 0,4,5
 178.392 734.622 178.392 734.622 197.584 755.185 c 0,6,7
 215.918 774.828 215.918 774.828 238.825 775.495 c 0,8,9
 262.175 776.173 262.175 776.173 281.236 755.655 c 0,10,11
 301.196 734.171 301.196 734.171 301.196 696 c 2,12,-1
 301.196 694.345 l 1,13,-1
 300.979 692.712 l 2,14,15
 297.505 666.652 297.505 666.652 289.696 641.712 c 0,16,17
 282.081 617.387 282.081 617.387 276.325 604.659 c 0,18,19
 270.745 592.317 270.745 592.317 259.104 571.531 c 0,20,21
 248.228 552.109 248.228 552.109 246.117 547.71 c 2,22,-1
 225.721 505.218 l 1,23,-1
 216.807 553.503 l 2,0,1
77.6064 553.503 m 2,24,25
 75.501 564.908 75.501 564.908 57.5967 619.402 c 0,26,27
 38.1074 678.717 38.1074 678.717 38.7939 699.438 c 0,28,29
 39.1924 734.622 39.1924 734.622 58.3838 755.185 c 0,30,31
 76.7168 774.828 76.7168 774.828 99.625 775.495 c 0,32,33
 122.976 776.174 122.976 776.174 142.037 755.655 c 0,34,35
 161.997 734.171 161.997 734.171 161.997 696 c 2,36,-1
 161.997 694.345 l 1,37,-1
 161.779 692.712 l 2,38,39
 158.305 666.654 158.305 666.654 150.497 641.712 c 0,40,41
 142.883 617.391 142.883 617.391 137.126 604.659 c 0,42,43
 131.545 592.317 131.545 592.317 119.904 571.531 c 0,44,45
 109.029 552.111 109.029 552.111 106.917 547.71 c 2,46,-1
 86.5205 505.218 l 1,47,-1
 77.6064 553.503 l 2,24,25
EndSplineSet
EndChar

StartChar: numbersign
Encoding: 35 35 6
Width: 409
GlyphClass: 2
Flags: W
LayerCount: 2
Fore
SplineSet
113.5 640 m 1,0,-1
 207.1 640 l 1,1,-1
 207.1 500 l 1,2,-1
 247.1 500 l 1,3,-1
 247.1 640 l 1,4,-1
 341.5 640 l 1,5,-1
 341.5 500 l 1,6,-1
 387.9 500 l 1,7,-1
 387.9 369 l 1,8,-1
 341.5 369 l 1,9,-1
 341.5 326 l 1,10,-1
 387.9 326 l 1,11,-1
 387.9 199 l 1,12,-1
 341.5 199 l 1,13,-1
 341.5 50 l 1,14,-1
 247.1 50 l 1,15,-1
 247.1 199 l 1,16,-1
 207.1 199 l 1,17,-1
 207.1 50 l 1,18,-1
 113.5 50 l 1,19,-1
 113.5 199.342 l 1,20,-1
 67.0996 200.342 l 1,21,-1
 67.0996 326 l 1,22,-1
 113.5 326 l 1,23,-1
 113.5 370 l 1,24,-1
 67.0996 370 l 1,25,-1
 67.0996 501.348 l 1,26,-1
 113.5 500.348 l 1,27,-1
 113.5 640 l 1,0,-1
207.1 369.777 m 1,28,-1
 207.1 326 l 1,29,-1
 247.1 326 l 1,30,-1
 247.1 369.221 l 1,31,-1
 207.1 369.777 l 1,28,-1
EndSplineSet
EndChar

StartChar: dollar
Encoding: 36 36 7
Width: 659
GlyphClass: 2
Flags: W
LayerCount: 2
Fore
SplineSet
330.724 9.47656 m 1,0,1
 305.533 13.8789 305.533 13.8789 279.042 29.3877 c 0,2,3
 245.858 48.8145 245.858 48.8145 228.873 65.1475 c 0,4,5
 212.846 80.5586 212.846 80.5586 198.842 96.0029 c 2,6,-1
 189.009 106.849 l 1,7,-1
 237.798 212.05 l 1,8,-1
 252.499 194.44 l 2,9,10
 271.028 172.242 271.028 172.242 283.49 160.442 c 0,11,12
 295.089 149.459 295.089 149.459 316.037 138.433 c 0,13,14
 335.858 128 335.858 128 358.229 128 c 0,15,16
 390.901 128 390.901 128 402.489 136.005 c 0,17,18
 416.419 145.627 416.419 145.627 434.991 183.46 c 0,19,20
 452.172 218.458 452.172 218.458 440.028 252.319 c 0,21,22
 428.259 285.137 428.259 285.137 394.533 302.508 c 0,23,24
 343.215 328.941 343.215 328.941 338.578 331.106 c 0,25,26
 288.089 353.136 288.089 353.136 261.704 381.935 c 0,27,28
 230.295 416.22 230.295 416.22 218.073 456.391 c 0,29,30
 205.995 496.092 205.995 496.092 208.678 538.574 c 0,31,32
 211.381 581.36 211.381 581.36 228.587 616.451 c 0,33,34
 245.837 651.632 245.837 651.632 277.196 675.15 c 0,35,36
 301.196 693.149 301.196 693.149 330.483 699.359 c 1,37,-1
 319.68 770 l 1,38,-1
 418.099 770 l 1,39,-1
 408.174 699.697 l 1,40,41
 455.651 690.961 455.651 690.961 490.688 655.553 c 2,42,-1
 501.994 644.127 l 1,43,-1
 451.009 547.752 l 1,44,-1
 437.216 563.033 l 2,45,46
 405.851 597.785 405.851 597.785 357.014 590.154 c 0,47,48
 336.962 587.021 336.962 587.021 323.672 570.021 c 0,49,50
 310.223 552.819 310.223 552.819 308.101 531.975 c 0,51,52
 306.106 512.391 306.106 512.391 319.931 488.827 c 0,53,54
 336.055 461.344 336.055 461.344 367.412 447.921 c 2,55,-1
 425.812 422.921 l 2,56,57
 450.722 412.259 450.722 412.259 478.143 385.198 c 0,58,59
 502.955 360.711 502.955 360.711 522.372 324.037 c 0,60,61
 542.744 285.558 542.744 285.558 545 238.189 c 0,62,63
 547.397 187.871 547.397 187.871 528.887 134.984 c 0,64,65
 495.164 38.6338 495.164 38.6338 414.455 14.8975 c 1,66,-1
 421.264 -50 l 1,67,-1
 324.981 -50 l 1,68,-1
 330.724 9.47656 l 1,0,1
EndSplineSet
EndChar

StartChar: percent
Encoding: 37 37 8
Width: 502
GlyphClass: 2
Flags: W
LayerCount: 2
Fore
SplineSet
156.4 473 m 0,0,1
 156.4 457.85 156.4 457.85 164.885 452.042 c 0,2,3
 173.906 445.866 173.906 445.866 182.572 451.943 c 0,4,5
 190.8 457.713 190.8 457.713 190.8 474 c 0,6,7
 190.8 484.445 190.8 484.445 186.347 488.941 c 0,8,9
 180.346 495 180.346 495 173.6 495 c 0,10,11
 167.262 495 167.262 495 161.4 488.52 c 0,12,13
 156.4 482.99 156.4 482.99 156.4 473 c 0,0,1
70.7998 472 m 0,14,15
 70.7998 512.056 70.7998 512.056 86.2871 541.094 c 0,16,17
 101.896 570.36 101.896 570.36 126.216 582.146 c 0,18,19
 148.881 593.133 148.881 593.133 174.961 591.988 c 0,20,21
 201.175 590.837 201.175 590.837 223.838 576.961 c 0,22,23
 247.317 562.586 247.317 562.586 262.513 534.094 c 0,24,25
 278 505.056 278 505.056 278 469 c 0,26,27
 278 431.148 278 431.148 262.676 401.219 c 0,28,29
 247.384 371.35 247.384 371.35 223.599 357.395 c 0,30,31
 200.9 344.078 200.9 344.078 174.681 343.503 c 0,32,33
 148.308 342.924 148.308 342.924 125.446 355.755 c 0,34,35
 101.424 369.236 101.424 369.236 86.0469 399.87 c 0,36,37
 70.7998 430.245 70.7998 430.245 70.7998 472 c 0,14,15
367.6 161 m 0,38,39
 367.6 146.101 367.6 146.101 375.824 140.717 c 0,40,41
 384.939 134.749 384.939 134.749 393.772 140.943 c 0,42,43
 402 146.713 402 146.713 402 162 c 0,44,45
 402 175.773 402 175.773 394.306 180.699 c 0,46,47
 385.282 186.476 385.282 186.476 375.824 180.283 c 0,48,49
 367.6 174.899 367.6 174.899 367.6 161 c 0,38,39
282 160 m 0,50,51
 282 201.212 282 201.212 298.016 230.331 c 0,52,53
 313.978 259.353 313.978 259.353 337.711 271.096 c 0,54,55
 360.156 282.201 360.156 282.201 386.44 280.472 c 0,56,57
 412.504 278.758 412.504 278.758 435.037 264.961 c 0,58,59
 458.331 250.7 458.331 250.7 473.895 222.993 c 0,60,61
 490 194.321 490 194.321 490 157 c 0,62,63
 490 118.894 490 118.894 474.071 89.3281 c 0,64,65
 458.48 60.3916 458.48 60.3916 435.037 46.0391 c 0,66,67
 412.24 32.0811 412.24 32.0811 385.881 31.5029 c 0,68,69
 359.441 30.9229 359.441 30.9229 336.934 43.8184 c 0,70,71
 313.498 57.2461 313.498 57.2461 297.768 87.6348 c 0,72,73
 282 118.094 282 118.094 282 160 c 0,50,51
424.402 587.782 m 1,74,-1
 492.25 499.997 l 1,75,-1
 123.598 23.2188 l 1,76,-1
 55.75 111.003 l 1,77,-1
 424.402 587.782 l 1,74,-1
EndSplineSet
EndChar

StartChar: ampersand
Encoding: 38 38 9
Width: 681
GlyphClass: 2
Flags: W
LayerCount: 2
Fore
SplineSet
331.941 423.902 m 2,0,-1
 484.939 223.634 l 1,1,2
 503.524 284.438 503.524 284.438 500.471 344.737 c 2,3,-1
 499.394 366 l 1,4,-1
 599.206 366 l 1,5,-1
 598.834 345.546 l 2,6,7
 596.523 218.358 596.523 218.358 557.781 127.992 c 1,8,-1
 669.546 -20 l 1,9,-1
 531.243 -20 l 1,10,-1
 492.996 29.5469 l 1,11,12
 433.098 -30.417 433.098 -30.417 341.048 -41.9238 c 1,13,14
 296.067 -46.249 296.067 -46.249 250.622 -27.4912 c 0,15,16
 204.706 -8.54102 204.706 -8.54102 167.658 36.6924 c 0,17,18
 130.192 82.4355 130.192 82.4355 116.233 144.595 c 2,19,-1
 116.02 145.549 l 1,20,-1
 115.882 146.524 l 2,21,22
 110.839 182.249 110.839 182.249 110.839 212.5 c 0,23,24
 110.839 244.464 110.839 244.464 119.771 275.727 c 0,25,26
 128.266 305.461 128.266 305.461 139.006 328.552 c 0,27,28
 149.788 351.734 149.788 351.734 165.215 373.696 c 0,29,30
 180.227 395.065 180.227 395.065 193.313 409.842 c 0,31,32
 201.072 418.602 201.072 418.602 209.267 426.899 c 1,33,34
 196.269 463.945 196.269 463.945 194.086 498.946 c 0,35,36
 191.389 542.222 191.389 542.222 202.454 575.646 c 0,37,38
 212.865 607.096 212.865 607.096 226.157 628.694 c 0,39,40
 239.267 649.997 239.267 649.997 254.464 665.641 c 0,41,42
 286.297 696.336 286.297 696.336 335.261 702.403 c 0,43,44
 383.135 708.334 383.135 708.334 424.84 690.414 c 0,45,46
 469.54 671.207 469.54 671.207 484.44 632.711 c 2,47,-1
 489.544 619.528 l 1,48,-1
 423.445 541.412 l 1,49,-1
 412.854 560.669 l 2,50,51
 399.663 584.653 399.663 584.653 363.031 587.54 c 0,52,53
 326.501 590.419 326.501 590.419 306.814 564.722 c 0,54,55
 286.838 537.251 286.838 537.251 292.251 502.461 c 0,56,57
 297.664 467.67 297.664 467.67 331.941 423.902 c 2,0,-1
265.897 327.319 m 1,58,59
 238.915 295.701 238.915 295.701 223.49 257.911 c 0,60,61
 206.537 216.375 206.537 216.375 217.218 176.325 c 0,62,63
 226.091 143.05 226.091 143.05 251.485 118.264 c 0,64,65
 278.324 92.0684 278.324 92.0684 304.655 82.1494 c 0,66,67
 330.688 72.3418 330.688 72.3418 348.348 74.8887 c 0,68,69
 392.825 80.2939 392.825 80.2939 427.272 116.792 c 1,70,-1
 265.897 327.319 l 1,58,59
EndSplineSet
EndChar

StartChar: quotesingle
Encoding: 39 39 10
Width: 138
GlyphClass: 2
Flags: W
LayerCount: 2
Fore
SplineSet
61.0869 546.906 m 2,0,1
 15.2002 632.943 15.2002 632.943 15.2002 699 c 0,2,3
 15.2002 734.003 15.2002 734.003 34.5918 755.472 c 0,4,5
 52.8105 775.643 52.8105 775.643 75.2393 776.977 c 0,6,7
 98.3887 778.355 98.3887 778.355 117.213 758.185 c 0,8,9
 136.8 737.198 136.8 737.198 136.8 699 c 0,10,11
 136.8 660.49 136.8 660.49 120.053 616.419 c 0,12,13
 104.182 574.655 104.182 574.655 87.2568 546.095 c 2,14,-1
 73.7109 523.237 l 1,15,-1
 61.0869 546.906 l 2,0,1
EndSplineSet
EndChar

StartChar: parenleft
Encoding: 40 40 11
Width: 241
GlyphClass: 2
Flags: W
LayerCount: 2
Fore
SplineSet
42.8633 146.216 m 0,0,1
 42 158.093 42 158.093 42 326.5 c 0,2,3
 42 493.09 42 493.09 42.8594 503.764 c 0,4,5
 49.001 608.575 49.001 608.575 92.3008 682.332 c 0,6,7
 135.646 756.168 135.646 756.168 203.587 793.323 c 2,8,-1
 226 805.58 l 1,9,-1
 226 661.679 l 1,10,-1
 219.271 655.699 l 2,11,12
 159.006 602.148 159.006 602.148 149.905 502.846 c 0,13,14
 149.2 489.648 149.2 489.648 149.2 328 c 0,15,16
 149.2 164.326 149.2 164.326 149.923 150.027 c 0,17,18
 160.52 48.4629 160.52 48.4629 219.001 -8.19141 c 2,19,-1
 225.2 -14.1973 l 1,20,-1
 225.2 -167.991 l 1,21,-1
 202.192 -153.98 l 2,22,23
 136.075 -113.715 136.075 -113.715 93.3008 -37.4844 c 0,24,25
 50.4385 38.9033 50.4385 38.9033 42.8633 146.216 c 0,0,1
EndSplineSet
EndChar

StartChar: parenright
Encoding: 41 41 12
Width: 265
GlyphClass: 2
Flags: W
LayerCount: 2
Fore
SplineSet
239.022 148.029 m 2,0,1
 230.61 41.8418 230.61 41.8418 187.829 -34.9316 c 0,2,3
 145.05 -111.701 145.05 -111.701 78.9072 -151.98 c 2,4,-1
 55.9004 -165.991 l 1,5,-1
 55.9004 -12.293 l 1,6,-1
 62.001 -6.28711 l 2,7,8
 120.58 51.377 120.58 51.377 131.178 152.037 c 0,9,10
 131.9 166.326 131.9 166.326 131.9 330 c 0,11,12
 131.9 491.649 131.9 491.649 131.197 504.794 c 0,13,14
 123.109 604.045 123.109 604.045 62.5264 658.792 c 2,15,-1
 55.9004 664.779 l 1,16,-1
 55.9004 808.932 l 1,17,-1
 78.4658 796.238 l 2,18,19
 146.313 758.077 146.313 758.077 189.211 684.812 c 0,20,21
 232.285 611.249 232.285 611.249 239.048 506.611 c 2,22,-1
 239.1 505.807 l 1,23,-1
 239.1 149.012 l 1,24,-1
 239.022 148.029 l 2,0,1
EndSplineSet
EndChar

StartChar: asterisk
Encoding: 42 42 13
Width: 190
GlyphClass: 2
Flags: W
LayerCount: 2
Fore
SplineSet
167.155 658 m 1,0,-1
 183.796 637.199 l 1,1,-1
 167.893 603.405 l 1,2,-1
 141.563 578.722 l 1,3,-1
 106.622 621.334 l 1,4,-1
 72.9668 579.264 l 1,5,-1
 44.2822 603.168 l 1,6,-1
 29.4805 638.116 l 1,7,-1
 46.3828 658 l 1,8,-1
 38.4355 658 l 1,9,-1
 30.3818 698.269 l 1,10,-1
 38.8643 736.439 l 1,11,-1
 74.1279 735.18 l 1,12,-1
 74.1279 771.396 l 1,13,-1
 106.128 779.396 l 1,14,-1
 138.128 771.396 l 1,15,-1
 138.128 736.885 l 1,16,-1
 172.179 735.555 l 1,17,-1
 182.108 698.318 l 1,18,-1
 172.433 658 l 1,19,-1
 167.155 658 l 1,0,-1
EndSplineSet
EndChar

StartChar: plus
Encoding: 43 43 14
Width: 445
GlyphClass: 2
Flags: W
LayerCount: 2
Fore
SplineSet
410.3 296.147 m 1,0,-1
 301.5 295.147 l 1,1,-1
 301.5 140 l 1,2,-1
 197.604 140 l 1,3,-1
 196.804 294.858 l 1,4,-1
 84.7002 293.857 l 1,5,-1
 84.7002 425.282 l 1,6,-1
 198.764 423.288 l 1,7,-1
 196.368 569 l 1,8,-1
 300.7 569 l 1,9,-1
 300.7 425.147 l 1,10,-1
 410.3 426.147 l 1,11,-1
 410.3 296.147 l 1,0,-1
EndSplineSet
EndChar

StartChar: comma
Encoding: 44 44 15
Width: 132
GlyphClass: 2
Flags: W
LayerCount: 2
Fore
SplineSet
9.76367 69.6035 m 0,0,1
 10.1602 104.622 10.1602 104.622 29.3525 125.185 c 0,2,3
 47.6865 144.829 47.6865 144.829 70.5928 145.495 c 0,4,5
 93.9434 146.174 93.9434 146.174 113.005 125.655 c 0,6,7
 132.965 104.171 132.965 104.171 132.965 66 c 0,8,9
 132.965 41.3936 132.965 41.3936 124.153 18.751 c 0,10,11
 116.335 -1.33691 116.335 -1.33691 109.105 -13.7637 c 0,12,13
 101.311 -27.1602 101.311 -27.1602 84.6201 -42.9482 c 0,14,15
 68.6416 -58.0625 68.6416 -58.0625 64.1201 -60.8887 c 0,16,17
 61.6006 -62.4639 61.6006 -62.4639 49.4453 -71.96 c 2,18,-1
 -35.3145 -138.178 l 1,19,-1
 28.6738 -42.1963 l 2,20,21
 31.7715 -37.5488 31.7715 -37.5488 35.873 -28.5771 c 0,22,23
 40.2578 -18.9873 40.2578 -18.9873 44.3203 -7.44531 c 0,24,25
 46.9834 0.120117 46.9834 0.120117 48.8652 6.97168 c 1,26,27
 35.8955 9.01953 35.8955 9.01953 25.2783 21.3438 c 0,28,29
 9.04492 40.1855 9.04492 40.1855 9.76367 69.6035 c 0,0,1
EndSplineSet
EndChar

StartChar: hyphen
Encoding: 45 45 16
Width: 424
GlyphClass: 2
Flags: W
LayerCount: 2
Fore
SplineSet
415.1 197 m 1,0,-1
 71.9004 197 l 1,1,-1
 71.9004 326.949 l 1,2,-1
 415.1 328.051 l 1,3,-1
 415.1 197 l 1,0,-1
EndSplineSet
EndChar

StartChar: period
Encoding: 46 46 17
Width: 166
GlyphClass: 2
Flags: W
LayerCount: 2
Fore
SplineSet
10.5996 60 m 0,0,1
 10.5996 96.1709 10.5996 96.1709 30.5596 117.655 c 0,2,3
 49.3047 137.832 49.3047 137.832 72.6367 138.495 c 0,4,5
 96.2344 139.165 96.2344 139.165 115.243 119.364 c 0,6,7
 135.4 98.3672 135.4 98.3672 135.4 62 c 0,8,9
 135.4 24.2021 135.4 24.2021 115.812 1.75684 c 0,10,11
 96.8242 -20 96.8242 -20 73 -20 c 128,-1,12
 49.3164 -20 49.3164 -20 30.3701 1.05176 c 0,13,14
 10.5996 23.0186 10.5996 23.0186 10.5996 60 c 0,0,1
EndSplineSet
EndChar

StartChar: slash
Encoding: 47 47 18
Width: 449
GlyphClass: 2
Flags: W
LayerCount: 2
Fore
SplineSet
197.036 -20 m 1,0,-1
 76.9717 -20 l 1,1,-1
 308.577 721.729 l 1,2,-1
 422.95 724.588 l 1,3,-1
 197.036 -20 l 1,0,-1
EndSplineSet
EndChar

StartChar: zero
Encoding: 48 48 19
Width: 512
GlyphClass: 2
Flags: W
LayerCount: 2
Fore
SplineSet
171.312 367 m 0,0,1
 171.312 240.293 171.312 240.293 203.614 182.48 c 0,2,3
 235.275 126.196 235.275 126.196 283.375 121.438 c 0,4,5
 330.281 116.798 330.281 116.798 360.963 167.084 c 0,6,7
 396.913 226.694 396.913 226.694 396.913 360 c 0,8,9
 396.913 494.295 396.913 494.295 355.476 551.545 c 0,10,11
 333.283 581.885 333.283 581.885 302.967 590.497 c 0,12,13
 273.096 598.983 273.096 598.983 244.45 582.36 c 0,14,15
 215.383 565.491 215.383 565.491 196.316 524.886 c 0,16,17
 171.312 471.572 171.312 471.572 171.312 367 c 0,0,1
65.7129 361 m 0,18,19
 65.7129 509.873 65.7129 509.873 111.434 598.776 c 0,20,21
 147.69 669.998 147.69 669.998 206.29 700.925 c 0,22,23
 264.89 731.854 264.89 731.854 325.381 716.078 c 0,24,25
 385.816 700.318 385.816 700.318 430.037 642.874 c 0,26,27
 503.312 548.085 503.312 548.085 503.312 358.167 c 1,28,29
 505.801 173.56 505.801 173.56 448.208 76.1592 c 0,30,31
 408.159 7.59766 408.159 7.59766 346.807 -13.7666 c 0,32,33
 285.86 -34.9893 285.86 -34.9893 225.036 -7.29199 c 0,34,35
 164.566 20.2441 164.566 20.2441 123.305 89.0137 c 0,36,37
 65.7129 185.354 65.7129 185.354 65.7129 361 c 0,18,19
EndSplineSet
EndChar

StartChar: one
Encoding: 49 49 20
Width: 346
GlyphClass: 2
Flags: W
LayerCount: 2
Fore
SplineSet
153.514 580 m 1,0,-1
 62.416 580 l 1,1,-1
 61.3496 740 l 1,2,-1
 262.945 740 l 1,3,-1
 263.883 605.104 l 1,4,-1
 264.653 98 l 1,5,-1
 265.483 98 l 1,6,-1
 265.483 -20 l 1,7,-1
 156.087 -20 l 1,8,-1
 155.287 58 l 1,9,-1
 154.313 58 l 1,10,-1
 153.514 580 l 1,0,-1
EndSplineSet
EndChar

StartChar: two
Encoding: 50 50 21
Width: 482
GlyphClass: 2
Flags: W
LayerCount: 2
Fore
SplineSet
47.2891 -20 m 1,0,-1
 309.866 407.552 l 1,1,2
 347.718 480.798 347.718 480.798 340.747 534.815 c 0,3,4
 337.483 560.113 337.483 560.113 326.021 574.629 c 0,5,6
 314.561 589.144 314.561 589.144 292.179 595.503 c 0,7,8
 269.151 602.082 269.151 602.082 239.061 586.52 c 0,9,10
 210.947 571.979 210.947 571.979 202.085 539.537 c 2,11,-1
 195.489 515.395 l 1,12,-1
 103.935 588.757 l 1,13,-1
 110.154 604.746 l 2,14,15
 157.038 725.276 157.038 725.276 278.477 721.996 c 0,16,17
 366.016 719.831 366.016 719.831 410.633 660.156 c 0,18,19
 455.748 599.815 455.748 599.815 446.021 502.519 c 0,20,21
 436.711 409.426 436.711 409.426 377.42 307.127 c 1,22,-1
 259.06 110.147 l 1,23,-1
 462.144 111.073 l 1,24,-1
 462.144 -19.9443 l 1,25,-1
 143.743 -21.0557 l 1,26,-1
 143.743 -20 l 1,27,-1
 47.2891 -20 l 1,0,-1
EndSplineSet
EndChar

StartChar: three
Encoding: 51 51 22
Width: 457
GlyphClass: 2
Flags: W
LayerCount: 2
Fore
SplineSet
275.545 433.961 m 1,0,1
 301.427 439.827 301.427 439.827 315.631 480.073 c 0,2,3
 330.628 522.568 330.628 522.568 316.327 559.133 c 0,4,5
 303.898 590.204 303.898 590.204 268.258 600.405 c 1,6,7
 241.854 606.451 241.854 606.451 211.534 597.532 c 0,8,9
 184.309 589.523 184.309 589.523 171.761 562.077 c 2,10,-1
 163.464 543.928 l 1,11,-1
 74.0605 614.509 l 1,12,-1
 84.1426 631.786 l 2,13,14
 138.661 725.215 138.661 725.215 260.564 721.997 c 0,15,16
 317.138 720.909 317.138 720.909 359.014 686.749 c 0,17,18
 401.066 652.444 401.066 652.444 418.575 601.378 c 0,19,20
 436.104 550.257 436.104 550.257 426.785 489.25 c 0,21,22
 418.854 437.327 418.854 437.327 389.629 391.42 c 1,23,24
 418.095 350.492 418.095 350.492 433.352 306.447 c 0,25,26
 451.545 253.924 451.545 253.924 450.665 206.04 c 0,27,28
 449.791 158.488 449.791 158.488 434.06 114.793 c 0,29,30
 418.259 70.9014 418.259 70.9014 390.11 39.5645 c 0,31,32
 362.343 8.65137 362.343 8.65137 324.436 -9.65625 c 0,33,34
 286.852 -27.8076 286.852 -27.8076 244.554 -28.001 c 1,35,36
 152.955 -31.9238 152.955 -31.9238 65.5391 26.3525 c 2,37,-1
 47.9844 38.0566 l 1,38,-1
 115.236 136.616 l 1,39,-1
 126.301 130.085 l 2,40,41
 153.792 113.858 153.792 113.858 176.392 106.325 c 0,42,43
 198.366 99 198.366 99 212.269 99 c 0,44,45
 227.937 99 227.937 99 247.136 100 c 1,46,47
 277.056 100 277.056 100 299.041 118.18 c 0,48,49
 320.735 136.12 320.735 136.12 328.906 163.085 c 0,50,51
 337.786 192.39 337.786 192.39 337.075 223.937 c 0,52,53
 336.419 253.055 336.419 253.055 321.094 278.458 c 0,54,55
 306.49 302.667 306.49 302.667 281.583 314 c 1,56,-1
 196.072 314 l 1,57,-1
 192.457 431.517 l 1,58,-1
 275.545 433.961 l 1,0,1
EndSplineSet
EndChar

StartChar: four
Encoding: 52 52 23
Width: 429
GlyphClass: 2
Flags: W
LayerCount: 2
Fore
SplineSet
286.924 263 m 1,0,-1
 286.924 445.047 l 1,1,-1
 189.651 263 l 1,2,-1
 286.924 263 l 1,0,-1
394.924 742 m 1,3,-1
 394.924 264 l 1,4,-1
 431.913 264 l 1,5,-1
 430.736 139 l 1,6,-1
 397.323 139 l 1,7,-1
 397.323 -20 l 1,8,-1
 285.323 -20 l 1,9,-1
 285.323 142 l 1,10,-1
 45.3232 142 l 1,11,-1
 45.3232 211.206 l 1,12,-1
 336.901 742 l 1,13,-1
 394.924 742 l 1,3,-1
EndSplineSet
EndChar

StartChar: five
Encoding: 53 53 24
Width: 457
GlyphClass: 2
Flags: W
LayerCount: 2
Fore
SplineSet
122.857 720 m 1,0,-1
 388.018 720 l 1,1,-1
 390.417 600 l 1,2,-1
 228.972 600 l 1,3,-1
 227.062 442.369 l 1,4,5
 275.591 442.832 275.591 442.832 305.441 435.638 c 0,6,7
 341.938 426.843 341.938 426.843 378.152 395.588 c 1,8,9
 409.41 369.913 409.41 369.913 427.33 327.912 c 0,10,11
 444.832 286.891 444.832 286.891 448.339 241.419 c 0,12,13
 451.847 195.923 451.847 195.923 440.497 150.086 c 0,14,15
 429.209 104.501 429.209 104.501 405.742 67.5625 c 0,16,17
 381.71 29.7344 381.71 29.7344 340.539 6.74023 c 0,18,19
 300.191 -15.7949 300.191 -15.7949 249.63 -16 c 1,20,21
 200.836 -18.9941 200.836 -18.9941 151.048 3.1582 c 0,22,23
 101.903 25.0225 101.903 25.0225 64.999 56.4756 c 2,24,-1
 50.9561 68.4443 l 1,25,-1
 108.384 161.166 l 1,26,-1
 120.524 152.239 l 2,27,28
 159.999 123.214 159.999 123.214 184.55 112.354 c 0,29,30
 207.96 102 207.96 102 245.846 102 c 0,31,32
 278.749 102.857 278.749 102.857 302.151 125.75 c 0,33,34
 326.013 149.093 326.013 149.093 334.476 179.98 c 0,35,36
 343.09 211.423 343.09 211.423 337.907 244.676 c 0,37,38
 333.073 275.696 333.073 275.696 315.235 294.363 c 1,39,40
 280.022 328.16 280.022 328.16 231.401 331.979 c 1,41,-1
 121.965 327.303 l 1,42,-1
 122.857 720 l 1,0,-1
EndSplineSet
EndChar

StartChar: six
Encoding: 54 54 25
Width: 529
GlyphClass: 2
Flags: W
LayerCount: 2
Fore
SplineSet
79.7275 252.761 m 1,0,1
 76.375 271.771 76.375 271.771 75.1621 307.656 c 0,2,3
 73.9521 343.449 73.9521 343.449 73.5498 380.226 c 0,4,5
 73.1211 419.279 73.1211 419.279 83.207 470.757 c 0,6,7
 93.2861 522.2 93.2861 522.2 113.42 569.387 c 0,8,9
 142.631 638.121 142.631 638.121 196.277 679.968 c 0,10,11
 250.162 722 250.162 722 309.854 722 c 0,12,13
 383.125 723.062 383.125 723.062 421.427 694.115 c 2,14,-1
 433.994 684.616 l 1,15,-1
 388.02 568.126 l 1,16,-1
 372.234 587.858 l 2,17,18
 368.116 593.006 368.116 593.006 350.732 598.64 c 0,19,20
 332.073 604.688 332.073 604.688 302.181 600.131 c 0,21,22
 269.499 595.692 269.499 595.692 245.337 573.805 c 0,23,24
 220.833 551.609 220.833 551.609 207.381 518.864 c 0,25,26
 193.146 484.21 193.146 484.21 186.79 447.293 c 0,27,28
 182.707 423.578 182.707 423.578 181.166 398.107 c 1,29,30
 201.852 419.436 201.852 419.436 223.862 432.553 c 0,31,32
 260.969 454.665 260.969 454.665 290.758 457.445 c 0,33,34
 319.91 460.164 319.91 460.164 351.02 451.524 c 0,35,36
 381.445 443.072 381.445 443.072 396.169 434.707 c 0,37,38
 410.197 426.737 410.197 426.737 422.834 417.259 c 0,39,40
 454.862 394.383 454.862 394.383 476.63 340.518 c 0,41,42
 497.948 287.762 497.948 287.762 497.948 224 c 0,43,44
 497.948 137.137 497.948 137.137 460.932 77.6465 c 0,45,46
 400.933 -16.916 400.933 -16.916 301.218 -18 c 1,47,48
 190.255 -18 190.255 -18 130.393 92.6152 c 0,49,50
 115.743 118.467 115.743 118.467 98.625 173.785 c 0,51,52
 81.8887 227.873 81.8887 227.873 79.7275 252.761 c 1,0,1
196.348 226 m 0,53,54
 196.348 188.212 196.348 188.212 211.133 161.331 c 0,55,56
 226.146 134.035 226.146 134.035 247.561 122.323 c 0,57,58
 269.993 110.056 269.993 110.056 296.534 110.498 c 0,59,60
 323.026 110.94 323.026 110.94 345.86 124.552 c 0,61,62
 367.799 137.631 367.799 137.631 382.542 165.918 c 0,63,64
 397.148 193.941 397.148 193.941 397.148 233 c 0,65,66
 397.148 274 397.148 274 377.562 299.707 c 0,67,68
 357.024 326.661 357.024 326.661 325.638 338.447 c 1,69,70
 308.618 341.635 308.618 341.635 299.296 339.755 c 0,71,72
 287.874 337.452 287.874 337.452 269.74 330.841 c 0,73,74
 243.124 320.603 243.124 320.603 219.351 285.564 c 0,75,76
 196.348 251.66 196.348 251.66 196.348 226 c 0,53,54
EndSplineSet
EndChar

StartChar: seven
Encoding: 55 55 26
Width: 431
GlyphClass: 2
Flags: W
LayerCount: 2
Fore
SplineSet
88.6865 711.055 m 1,0,-1
 413.486 709.945 l 1,1,-1
 413.486 609.246 l 1,2,-1
 415.452 601.875 l 1,3,-1
 189.391 -20 l 1,4,-1
 55.4131 -20 l 1,5,-1
 281.813 578 l 1,6,-1
 88.6865 578 l 1,7,-1
 88.6865 711.055 l 1,0,-1
EndSplineSet
EndChar

StartChar: eight
Encoding: 56 56 27
Width: 499
GlyphClass: 2
Flags: W
LayerCount: 2
Fore
SplineSet
92.2998 505 m 0,0,1
 92.2998 556.268 92.2998 556.268 108.894 602.663 c 0,2,3
 125.731 649.743 125.731 649.743 153.729 676.838 c 0,4,5
 202.823 723.958 202.823 723.958 271.799 724.5 c 0,6,7
 340.631 725.041 340.631 725.041 387.997 682.278 c 0,8,9
 418.476 655.385 418.476 655.385 437.476 606.781 c 0,10,11
 456.3 558.624 456.3 558.624 456.3 505 c 2,12,-1
 456.3 504.334 l 1,13,14
 453.828 457.989 453.828 457.989 414.648 387.601 c 1,15,16
 487.5 317.559 487.5 317.559 487.5 207 c 0,17,18
 487.5 114.123 487.5 114.123 452.883 58.6465 c 0,19,20
 423.08 11.5312 423.08 11.5312 376.054 -12.9619 c 0,21,22
 329.9 -37 329.9 -37 278.7 -37 c 0,23,24
 223.195 -37 223.195 -37 174.812 -9.16895 c 0,25,26
 125.61 19.1328 125.61 19.1328 96.7158 71.6689 c 0,27,28
 67.5 124.788 67.5 124.788 67.5 206 c 0,29,30
 67.5 310.776 67.5 310.776 136.225 381.858 c 1,31,32
 94.6934 444.672 94.6934 444.672 92.3203 504.001 c 1,33,-1
 92.2998 505 l 0,0,1
180.3 212 m 0,34,35
 180.3 174.016 180.3 174.016 194.844 146.535 c 0,36,37
 209.502 118.839 209.502 118.839 230.904 106.717 c 0,38,39
 253.458 93.9424 253.458 93.9424 280.113 93.498 c 0,40,41
 306.595 93.0566 306.595 93.0566 329.381 105.765 c 0,42,43
 351.04 117.844 351.04 117.844 365.262 145.354 c 0,44,45
 379.5 172.899 379.5 172.899 379.5 212 c 0,46,47
 379.5 253.673 379.5 253.673 361.285 280.581 c 0,48,49
 342.715 308.017 342.715 308.017 312.787 318.464 c 1,50,51
 276.123 326.376 276.123 326.376 244.433 316.677 c 1,52,53
 215.645 306.145 215.645 306.145 197.823 279.244 c 0,54,55
 180.3 252.794 180.3 252.794 180.3 212 c 0,34,35
295.016 438.701 m 1,56,57
 320.032 446.589 320.032 446.589 335.031 468.13 c 0,58,59
 349.9 489.485 349.9 489.485 349.9 525 c 0,60,61
 349.9 551.633 349.9 551.633 339.244 570.44 c 0,62,63
 328.275 589.797 328.275 589.797 311.666 598.581 c 0,64,65
 293.984 607.932 293.984 607.932 273.771 607.503 c 0,66,67
 253.331 607.069 253.331 607.069 235.838 597.636 c 0,68,69
 219.452 588.8 219.452 588.8 208.028 569.217 c 0,70,71
 197.1 550.483 197.1 550.483 197.1 524 c 0,72,73
 197.1 487.604 197.1 487.604 212.259 466.287 c 0,74,75
 227.525 444.818 227.525 444.818 252.384 437.787 c 1,76,77
 272.94 435.341 272.94 435.341 295.016 438.701 c 1,56,57
EndSplineSet
EndChar

StartChar: nine
Encoding: 57 57 28
Width: 463
GlyphClass: 2
Flags: W
LayerCount: 2
Fore
SplineSet
173.104 501 m 0,0,1
 173.104 456.883 173.104 456.883 191.2 432.646 c 0,2,3
 209.539 408.085 209.539 408.085 233.223 404.884 c 0,4,5
 259.057 401.393 259.057 401.393 285.507 413.737 c 0,6,7
 310.868 425.572 310.868 425.572 323.219 447.51 c 0,8,-1
 323.674 448.279 l 2,9,10
 337.208 470.03 337.208 470.03 340.282 508.613 c 1,11,12
 339.272 540.326 339.272 540.326 327.428 562.336 c 0,13,14
 315.337 584.803 315.337 584.803 297.425 594 c 0,15,16
 278.309 603.814 278.309 603.814 256.252 602.521 c 0,17,18
 233.85 601.209 233.85 601.209 214.741 589.919 c 0,19,20
 196.948 579.405 196.948 579.405 185.031 555.82 c 0,21,22
 173.104 532.214 173.104 532.214 173.104 501 c 0,0,1
66.7031 495 m 0,23,24
 66.7031 569.881 66.7031 569.881 95.249 625.324 c 0,25,26
 123.797 680.771 123.797 680.771 167.683 705.707 c 0,27,28
 210.436 730 210.436 730 259.503 730 c 0,29,30
 308.634 730 308.634 730 350.637 705.643 c 0,31,32
 393.758 680.637 393.758 680.637 421.479 625.085 c 0,33,34
 449.171 569.591 449.171 569.591 448.302 495.706 c 2,35,-1
 448.295 495.201 l 1,36,37
 443.313 399.727 443.313 399.727 399.676 254.949 c 0,38,39
 356.214 110.751 356.214 110.751 290.364 -11.1895 c 2,40,-1
 285.562 -20.083 l 1,41,-1
 142.187 -18.6826 l 1,42,-1
 162.073 13.2783 l 2,43,44
 201.19 76.1455 201.19 76.1455 217.903 104 c 0,45,46
 234.158 131.092 234.158 131.092 259.696 185.606 c 0,47,48
 283.753 236.959 283.753 236.959 299.092 286.347 c 1,49,50
 273.627 276 273.627 276 241.903 276 c 0,51,52
 197.48 276 197.48 276 159.011 298.95 c 0,53,54
 119.718 322.393 119.718 322.393 93.2588 373.657 c 0,55,56
 66.7031 425.109 66.7031 425.109 66.7031 495 c 0,23,24
EndSplineSet
EndChar

StartChar: colon
Encoding: 58 58 29
Width: 144
GlyphClass: 2
Flags: W
LayerCount: 2
Fore
SplineSet
17.5996 409 m 0,0,1
 17.5996 443.532 17.5996 443.532 38.3232 464.535 c 0,2,3
 57.3672 483.836 57.3672 483.836 80.0283 484.495 c 0,4,5
 102.958 485.161 102.958 485.161 122.271 466.241 c 0,6,7
 143.2 445.735 143.2 445.735 143.2 410 c 0,8,9
 143.2 373.665 143.2 373.665 122.676 352.17 c 0,10,11
 103.417 332 103.417 332 80.4004 332 c 0,12,13
 57.5293 332 57.5293 332 38.3232 351.465 c 0,14,15
 17.5996 372.468 17.5996 372.468 17.5996 409 c 0,0,1
16.7998 75 m 0,16,17
 16.7998 111.171 16.7998 111.171 36.7598 132.655 c 0,18,19
 55.5039 152.832 55.5039 152.832 78.8369 153.495 c 0,20,21
 102.435 154.165 102.435 154.165 121.443 134.364 c 0,22,23
 141.6 113.367 141.6 113.367 141.6 77 c 0,24,25
 141.6 39.2021 141.6 39.2021 122.011 16.7568 c 0,26,27
 103.024 -5 103.024 -5 79.2002 -5 c 0,28,29
 55.5166 -5 55.5166 -5 36.5703 16.0518 c 0,30,31
 16.7998 38.0186 16.7998 38.0186 16.7998 75 c 0,16,17
EndSplineSet
EndChar

StartChar: semicolon
Encoding: 59 59 30
Width: 132
GlyphClass: 2
Flags: W
LayerCount: 2
Fore
SplineSet
6.48047 414 m 0,0,1
 6.48047 449.367 6.48047 449.367 26.6377 470.364 c 0,2,3
 45.4873 490 45.4873 490 68.8809 490 c 0,4,5
 91.9707 490 91.9707 490 110.704 471.787 c 0,6,7
 131.28 451.781 131.28 451.781 131.28 416 c 0,8,9
 131.28 379.829 131.28 379.829 111.32 358.345 c 0,10,11
 92.4209 338 92.4209 338 68.8809 338 c 0,12,13
 45.4873 338 45.4873 338 26.6377 357.636 c 0,14,15
 6.48047 378.633 6.48047 378.633 6.48047 414 c 0,0,1
10.4795 92.5967 m 0,16,17
 10.8916 126.613 10.8916 126.613 30.4404 147.655 c 0,18,19
 49.1816 167.828 49.1816 167.828 72.1084 168.495 c 0,20,21
 95.7344 169.182 95.7344 169.182 114.477 147.761 c 0,22,23
 133.681 125.813 133.681 125.813 133.681 88 c 0,24,25
 133.681 64.7305 133.681 64.7305 125.485 41.833 c 0,26,27
 117.93 20.7197 117.93 20.7197 110.408 8.37891 c 0,28,29
 102.618 -4.40039 102.618 -4.40039 85.5723 -20.1016 c 0,30,31
 70.2773 -34.1885 70.2773 -34.1885 67.3809 -36.7744 c 0,32,33
 63.7109 -40.0508 63.7109 -40.0508 49.167 -49.6758 c 2,34,-1
 -44.873 -111.908 l 1,35,-1
 30.3672 -17.8574 l 2,36,37
 32.7373 -14.8945 32.7373 -14.8945 36.4346 -6.42285 c 0,38,39
 40.9678 3.96582 40.9678 3.96582 45.1357 15.333 c 0,40,41
 47.8438 22.7178 47.8438 22.7178 49.9053 29.5215 c 1,42,43
 37.1748 32.208 37.1748 32.208 26.834 43.3516 c 0,44,45
 9.76465 61.7451 9.76465 61.7451 10.4795 92.5967 c 0,16,17
EndSplineSet
EndChar

StartChar: less
Encoding: 60 60 31
Width: 553
GlyphClass: 2
Flags: W
LayerCount: 2
Fore
SplineSet
503.463 628.177 m 1,0,-1
 503.463 483.617 l 1,1,-1
 321.49 370.337 l 1,2,-1
 499.557 250.903 l 1,3,-1
 498.408 103.02 l 1,4,-1
 178.992 313.446 l 1,5,-1
 91.1699 375.557 l 1,6,-1
 166.092 420.003 l 1,7,-1
 503.463 628.177 l 1,0,-1
EndSplineSet
EndChar

StartChar: equal
Encoding: 61 61 32
Width: 598
GlyphClass: 2
Flags: W
LayerCount: 2
Fore
SplineSet
142.16 309.044 m 1,0,-1
 527.767 307.954 l 1,1,-1
 525.439 179.956 l 1,2,-1
 139.833 181.046 l 1,3,-1
 142.16 309.044 l 1,0,-1
138.231 547.046 m 1,4,-1
 523.842 545.956 l 1,5,-1
 526.169 417.954 l 1,6,-1
 140.559 419.044 l 1,7,-1
 138.231 547.046 l 1,4,-1
EndSplineSet
EndChar

StartChar: greater
Encoding: 62 62 33
Width: 558
GlyphClass: 2
Flags: W
LayerCount: 2
Fore
SplineSet
114.537 628.177 m 1,0,-1
 451.907 420.003 l 1,1,-1
 526.83 375.557 l 1,2,-1
 439.008 313.446 l 1,3,-1
 119.592 103.02 l 1,4,-1
 118.443 250.903 l 1,5,-1
 296.51 370.337 l 1,6,-1
 114.537 483.617 l 1,7,-1
 114.537 628.177 l 1,0,-1
EndSplineSet
EndChar

StartChar: question
Encoding: 63 63 34
Width: 492
GlyphClass: 2
Flags: W
LayerCount: 2
Fore
SplineSet
252.723 652 m 0,0,1
 231.229 652 231.229 652 216.666 644.139 c 0,2,3
 202.486 636.486 202.486 636.486 195.703 626.531 c 0,4,5
 186.256 612.668 186.256 612.668 173.995 596.321 c 2,6,-1
 159.6 577.127 l 1,7,-1
 108.904 681.234 l 1,8,-1
 116.764 692.287 l 2,9,10
 144.754 731.649 144.754 731.649 180.064 750.407 c 0,11,12
 215.065 769 215.065 769 263.123 769 c 0,13,14
 340.677 769 340.677 769 387.299 714.052 c 0,15,16
 434.322 658.63 434.322 658.63 434.322 568 c 0,17,18
 434.322 521.159 434.322 521.159 418.151 481.853 c 0,19,20
 402.651 444.18 402.651 444.18 368.233 400.108 c 2,21,-1
 334.783 356.304 l 2,22,23
 307.694 319.698 307.694 319.698 303.574 303.455 c 0,24,25
 299.123 285.906 299.123 285.906 299.123 237 c 2,26,-1
 299.123 235.828 l 1,27,-1
 295.835 200.896 l 1,28,-1
 187.404 193.909 l 1,29,-1
 188.723 248.303 l 1,30,31
 188.723 310.593 188.723 310.593 203.126 347.725 c 0,32,33
 217.057 383.64 217.057 383.64 249.147 424.809 c 1,34,-1
 283.618 470.903 l 2,35,36
 290.373 479.348 290.373 479.348 297.737 488.04 c 0,37,38
 303.987 495.419 303.987 495.419 309.596 504.621 c 0,39,40
 315.747 514.713 315.747 514.713 320.718 523.794 c 0,41,42
 324.652 530.982 324.652 530.982 327.144 540.325 c 0,43,44
 329.305 548.43 329.305 548.43 328.778 556.339 c 2,45,-1
 328.74 556.906 l 1,46,47
 327.672 607.637 327.672 607.637 309.77 629.818 c 0,48,49
 291.867 652 291.867 652 252.723 652 c 0,0,1
180.723 60 m 0,50,51
 180.723 96.1709 180.723 96.1709 200.683 117.655 c 0,52,53
 219.427 137.832 219.427 137.832 242.76 138.495 c 0,54,55
 266.357 139.165 266.357 139.165 285.366 119.364 c 0,56,57
 305.522 98.3672 305.522 98.3672 305.522 62 c 0,58,59
 305.522 24.2021 305.522 24.2021 285.934 1.75684 c 0,60,61
 266.946 -20 266.946 -20 243.123 -20 c 0,62,63
 219.439 -20 219.439 -20 200.493 1.05176 c 0,64,65
 180.723 23.0186 180.723 23.0186 180.723 60 c 0,50,51
EndSplineSet
EndChar

StartChar: at
Encoding: 64 64 35
Width: 815
GlyphClass: 2
Flags: W
LayerCount: 2
Fore
SplineSet
594.613 152.439 m 1,0,1
 575.467 154.576 575.467 154.576 558.196 162.814 c 0,2,3
 532.185 175.221 532.185 175.221 516.588 198.793 c 1,4,5
 489.423 180.626 489.423 180.626 457.527 177.559 c 0,6,7
 417.414 173.702 417.414 173.702 381.958 191.43 c 0,8,9
 345.412 209.703 345.412 209.703 320.663 255.265 c 0,10,11
 295.987 300.692 295.987 300.692 295.104 362.593 c 0,12,13
 294.227 410.834 294.227 410.834 307.562 450.284 c 0,14,15
 321.1 490.333 321.1 490.333 344.154 513.965 c 0,16,17
 366.313 536.679 366.313 536.679 393.75 548.849 c 0,18,19
 421.494 561.155 421.494 561.155 451.416 559.48 c 0,20,21
 479.418 557.912 479.418 557.912 504.7 544.643 c 1,22,-1
 504.7 555 l 1,23,-1
 596.283 555 l 1,24,-1
 595.06 533.575 l 2,25,26
 593.457 505.525 593.457 505.525 591.055 465.504 c 0,27,28
 588.656 425.502 588.656 425.502 587.465 403.17 c 0,29,30
 586.315 381.619 586.315 381.619 587.094 348.079 c 0,31,32
 587.835 316.096 587.835 316.096 591.522 281.802 c 1,33,34
 596.28 267.589 596.28 267.589 615.261 263.742 c 0,35,36
 636.777 259.381 636.777 259.381 650.187 276.142 c 0,37,38
 667.896 298.278 667.896 298.278 671.877 310.528 c 0,39,40
 675.9 322.906 675.9 322.906 675.9 367.078 c 0,41,42
 676.646 486.401 676.646 486.401 616.856 556.527 c 0,43,44
 593.14 585.276 593.14 585.276 550.842 601.367 c 0,45,46
 507.116 618 507.116 618 463.9 618 c 0,47,48
 413.38 618 413.38 618 364.242 593.43 c 0,49,50
 316.294 569.455 316.294 569.455 291.781 529.805 c 0,51,52
 247.9 458.22 247.9 458.22 247.9 350 c 0,53,54
 247.9 313.891 247.9 313.891 261.133 273 c 0,55,56
 274.632 231.282 274.632 231.282 299.117 193.612 c 0,57,58
 323.042 156.804 323.042 156.804 361.33 131.713 c 0,59,60
 399.167 106.917 399.167 106.917 442.651 105.995 c 0,61,62
 471.45 105.023 471.45 105.023 494.571 107.431 c 0,63,64
 517.037 109.771 517.037 109.771 531.157 114.749 c 0,65,66
 545.865 119.934 545.865 119.934 558.608 126.494 c 0,67,68
 570.744 132.74 570.744 132.74 579.024 139.641 c 0,69,70
 586.231 145.646 586.231 145.646 594.613 152.439 c 1,0,1
621.354 152.434 m 1,71,-1
 673.175 86.3359 l 1,72,-1
 656.461 73.1035 l 2,73,74
 632.001 53.7402 632.001 53.7402 617.533 43.9229 c 0,75,76
 602.594 33.7852 602.594 33.7852 576.396 21.3105 c 0,77,78
 549.432 8.46973 549.432 8.46973 516.761 3.16699 c 0,79,80
 484.934 -2 484.934 -2 442.3 -2 c 0,81,82
 387.51 -2 387.51 -2 339.285 19.6797 c 0,83,84
 290.911 41.4277 290.911 41.4277 257.475 77.3281 c 0,85,86
 224.591 112.637 224.591 112.637 200.563 157.951 c 0,87,88
 176.383 203.555 176.383 203.555 165.303 252.561 c 0,89,90
 154.3 301.228 154.3 301.228 154.3 350 c 0,91,92
 154.3 496.228 154.3 496.228 225.209 602.804 c 0,93,94
 263.715 660.566 263.715 660.566 330.533 695.455 c 0,95,96
 396.693 730 396.693 730 463.1 730 c 0,97,98
 523.91 730 523.91 730 580.621 708.109 c 0,99,100
 638.191 685.887 638.191 685.887 674.423 647.067 c 1,101,102
 720.652 595.703 720.652 595.703 742.845 523.144 c 0,103,104
 764.7 451.688 764.7 451.688 764.7 371 c 0,105,106
 764.7 310.257 764.7 310.257 753.216 273.264 c 0,107,108
 741.442 235.338 741.442 235.338 705.653 194.965 c 1,109,110
 674.812 162.084 674.812 162.084 633.507 154.228 c 0,111,112
 627.409 153.068 627.409 153.068 621.354 152.434 c 1,71,-1
385.5 366 m 0,113,114
 385.5 338.907 385.5 338.907 396.133 318.365 c 0,115,116
 406.484 298.368 406.484 298.368 421.583 291.196 c 0,117,118
 438.538 283.142 438.538 283.142 456.085 283.985 c 0,119,120
 471.896 284.745 471.896 284.745 485.5 297.5 c 0,121,122
 498.253 309.456 498.253 309.456 503.463 331.364 c 1,123,124
 504.652 341.529 504.652 341.529 504.303 368.172 c 0,125,126
 503.959 394.288 503.959 394.288 503.312 405.127 c 1,127,128
 497.235 428.263 497.235 428.263 484.429 441.665 c 0,129,130
 471.554 455.139 471.554 455.139 456.392 455.504 c 0,131,132
 438.976 455.922 438.976 455.922 422.096 447.06 c 0,133,134
 406.79 439.025 406.79 439.025 396.282 417.929 c 0,135,136
 385.5 396.282 385.5 396.282 385.5 366 c 0,113,114
EndSplineSet
EndChar

StartChar: A
Encoding: 65 65 36
Width: 606
GlyphClass: 2
Flags: W
LayerCount: 2
Fore
SplineSet
329.857 782.365 m 1,0,-1
 378.076 647.118 l 1,1,-1
 614.454 -19 l 1,2,-1
 503.718 -19 l 1,3,-1
 434.918 163 l 1,4,-1
 235.445 163 l 1,5,-1
 170.646 -19 l 1,6,-1
 60.0811 -19 l 1,7,-1
 291.86 663.622 l 1,8,-1
 329.857 782.365 l 1,0,-1
390.595 286 m 1,9,-1
 331.971 460.744 l 1,10,-1
 277.292 286 l 1,11,-1
 390.595 286 l 1,9,-1
EndSplineSet
EndChar

StartChar: B
Encoding: 66 66 37
Width: 465
GlyphClass: 2
Flags: W
LayerCount: 2
Fore
SplineSet
70.8184 708 m 1,0,-1
 251.662 708 l 1,1,-1
 254.001 706.052 l 1,2,3
 291.015 705.716 291.015 705.716 321.014 687.487 c 0,4,5
 353.385 667.817 353.385 667.817 372.128 635.815 c 0,6,7
 390.43 604.566 390.43 604.566 397.979 565.157 c 0,8,9
 405.533 525.712 405.533 525.712 400.601 488.712 c 0,10,11
 395.567 450.96 395.567 450.96 376.071 418.089 c 0,12,13
 367.937 404.373 367.937 404.373 357.44 393.097 c 1,14,15
 376.527 383.753 376.527 383.753 392.192 366.51 c 0,16,17
 422.21 333.467 422.21 333.467 435.18 285.391 c 0,18,19
 447.805 238.589 447.805 238.589 444.778 185.089 c 0,20,21
 441.748 131.521 441.748 131.521 423.061 85.8867 c 0,22,23
 403.737 38.7012 403.737 38.7012 362.917 8.75195 c 0,24,25
 322.833 -20.6582 322.833 -20.6582 268.966 -19.0312 c 1,26,-1
 261.217 -20 l 1,27,-1
 110.019 -20 l 2,28,29
 110.019 -19.4121 110.019 -19.4121 87.1445 -19.9961 c 2,30,-1
 70.8184 -20.4121 l 1,31,-1
 70.8184 708 l 1,0,-1
172.418 596 m 1,32,-1
 172.418 427 l 1,33,-1
 244.875 427 l 1,34,35
 267.846 431.452 267.846 431.452 282.029 448.797 c 0,36,37
 296.501 466.493 296.501 466.493 298.963 489.188 c 0,38,39
 301.723 514.629 301.723 514.629 296.194 539.681 c 0,40,41
 291.218 562.229 291.218 562.229 274.663 578.148 c 0,42,43
 257.987 594.182 257.987 594.182 233.586 595.007 c 2,44,-1
 218.019 595.533 l 2,45,46
 218.019 596 218.019 596 172.418 596 c 1,32,-1
172.418 314 m 1,47,-1
 172.418 115 l 1,48,-1
 278.652 115 l 1,49,50
 303.633 116.062 303.633 116.062 318.938 134.428 c 0,51,52
 334.776 153.435 334.776 153.435 337.321 181.271 c 0,53,54
 340.195 212.702 340.195 212.702 334.083 243.716 c 0,55,56
 328.45 272.29 328.45 272.29 310.466 292.689 c 0,57,58
 293.258 312.208 293.258 312.208 269.586 313.007 c 2,59,-1
 254.019 313.533 l 2,60,61
 254.019 314 254.019 314 172.418 314 c 1,47,-1
EndSplineSet
EndChar

StartChar: C
Encoding: 67 67 38
Width: 625
GlyphClass: 2
Flags: W
LayerCount: 2
Fore
SplineSet
414.848 721.985 m 0,0,1
 488.375 718.854 488.375 718.854 540.207 689.111 c 0,2,3
 559.836 677.378 559.836 677.378 568.455 670.006 c 0,4,5
 576.773 662.892 576.773 662.892 594.232 644.185 c 2,6,-1
 608.161 629.261 l 1,7,-1
 524.87 536.878 l 1,8,-1
 514.39 553.721 l 2,9,10
 506.181 566.915 506.181 566.915 473.208 580.506 c 0,11,12
 437.819 595.094 437.819 595.094 412.889 596.011 c 0,13,14
 352.904 598.786 352.904 598.786 295.859 554.509 c 128,-1,15
 238.698 510.141 238.698 510.141 211.922 438.552 c 0,16,17
 176.371 343.198 176.371 343.198 203.981 252.085 c 0,18,19
 231.665 160.732 231.665 160.732 308.978 116.128 c 0,20,21
 346.731 93.9199 346.731 93.9199 388.105 92.9971 c 0,22,23
 429.939 92.0635 429.939 92.0635 466.751 108.796 c 0,24,25
 504.172 125.805 504.172 125.805 539.109 158.084 c 2,26,-1
 550.822 168.905 l 1,27,-1
 619.133 73.5547 l 1,28,-1
 607.382 60.2012 l 2,29,30
 569.878 17.582 569.878 17.582 518.156 -6.26465 c 0,31,32
 467.14 -29.7861 467.14 -29.7861 418.384 -33.4639 c 0,33,34
 370.341 -37.0879 370.341 -37.0879 327.514 -29.291 c 0,35,36
 283.668 -21.3096 283.668 -21.3096 254.877 -2.76953 c 0,37,38
 138.075 72.8564 138.075 72.8564 99.1553 208.759 c 0,39,40
 60.1348 345.016 60.1348 345.016 115.721 493.458 c 0,41,42
 156.983 603.983 156.983 603.983 238.756 665.626 c 128,-1,43
 320.506 727.252 320.506 727.252 414.848 721.985 c 0,0,1
EndSplineSet
EndChar

StartChar: D
Encoding: 68 68 39
Width: 549
GlyphClass: 2
Flags: W
LayerCount: 2
Fore
SplineSet
176.217 711 m 1,0,1
 192.757 712.99 192.757 712.99 222.662 711.993 c 0,2,3
 252.433 711 252.433 711 265.173 711 c 0,4,5
 314.162 709.946 314.162 709.946 356.096 692.474 c 0,6,7
 398.489 674.81 398.489 674.81 427.168 645.479 c 0,8,9
 454.876 617.141 454.876 617.141 471.93 590.494 c 0,10,11
 489.063 563.722 489.063 563.722 500.3 534.551 c 0,12,13
 527.967 460.148 527.967 460.148 532.989 378.024 c 0,14,15
 538.012 295.904 538.012 295.904 520.8 221.916 c 0,16,17
 503.382 147.044 503.382 147.044 459.755 86.1562 c 0,18,19
 415.791 24.7998 415.791 24.7998 351.786 -2.93555 c 0,20,21
 333.778 -10.4395 333.778 -10.4395 291.816 -19.6953 c 2,22,-1
 290.437 -20 l 1,23,-1
 289.036 -20 l 2,24,25
 276.374 -20 276.374 -20 253.312 -20.4971 c 0,26,27
 229.974 -21 229.974 -21 216.236 -21 c 0,28,29
 202.431 -21 202.431 -21 171.231 -20 c 1,30,-1
 76.2363 -20 l 1,31,-1
 76.2363 711 l 1,32,-1
 176.217 711 l 1,0,1
409.381 468.571 m 0,33,34
 390.388 527.009 390.388 527.009 351.452 561.123 c 0,35,36
 312.786 595 312.786 595 257.836 595 c 0,37,38
 253.711 595 253.711 595 223.226 595.5 c 0,39,40
 201.944 595.852 201.944 595.852 181.925 595.452 c 1,41,-1
 184.146 102.922 l 1,42,43
 204.613 102.718 204.613 102.718 223.528 101.991 c 0,44,45
 248.2 101.042 248.2 101.042 279.283 106.318 c 0,46,47
 309.56 111.458 309.56 111.458 334.14 124.493 c 0,48,49
 369.351 142.098 369.351 142.098 390.977 186.415 c 0,50,51
 413.619 232.814 413.619 232.814 419.175 285.132 c 0,52,53
 424.954 339.553 424.954 339.553 421.883 389.466 c 0,54,55
 418.868 438.465 418.868 438.465 409.381 468.571 c 0,33,34
EndSplineSet
EndChar

StartChar: E
Encoding: 69 69 40
Width: 434
GlyphClass: 2
Flags: W
LayerCount: 2
Fore
SplineSet
75.5 713 m 1,0,-1
 400.3 713 l 1,1,-1
 400.3 588 l 1,2,-1
 181.1 588 l 1,3,-1
 181.1 432 l 1,4,-1
 337.9 432 l 1,5,-1
 337.9 309 l 1,6,-1
 181.1 309 l 1,7,-1
 181.1 102 l 1,8,-1
 407.5 102 l 1,9,-1
 407.5 -20 l 1,10,-1
 75.5 -20 l 1,11,-1
 75.5 713 l 1,0,-1
EndSplineSet
EndChar

StartChar: F
Encoding: 70 70 41
Width: 422
GlyphClass: 2
Flags: W
LayerCount: 2
Fore
SplineSet
77.2998 711 m 1,0,-1
 391.7 711 l 1,1,-1
 391.7 589 l 1,2,-1
 183.7 589 l 1,3,-1
 183.7 432 l 1,4,-1
 339.7 432 l 1,5,-1
 339.7 309 l 1,6,-1
 183.7 309 l 1,7,-1
 183.7 -20 l 1,8,-1
 77.2998 -20 l 1,9,-1
 77.2998 711 l 1,0,-1
EndSplineSet
EndChar

StartChar: G
Encoding: 71 71 42
Width: 633
GlyphClass: 2
Flags: W
LayerCount: 2
Fore
SplineSet
624.85 385.089 m 1,0,-1
 623.984 115.965 l 2,1,2
 623.984 89.1299 623.984 89.1299 602.905 74.5342 c 1,3,4
 565.729 32.0869 565.729 32.0869 515.229 8.28613 c 0,5,6
 464.288 -15.7236 464.288 -15.7236 414.802 -20.4424 c 0,7,8
 365.91 -25.1035 365.91 -25.1035 323.029 -17.8174 c 0,9,10
 279.104 -10.3545 279.104 -10.3545 250.188 8.26465 c 0,11,12
 173.924 58.5498 173.924 58.5498 130.511 135.471 c 0,13,14
 86.8701 212.795 86.8701 212.795 80.46 295.061 c 0,15,16
 74.1396 376.172 74.1396 376.172 95.1484 458.104 c 128,-1,17
 116.126 539.916 116.126 539.916 159.401 603.464 c 0,18,19
 202.895 667.331 202.895 667.331 268.915 705.179 c 0,20,21
 335.146 743.148 335.146 743.148 410.13 739.988 c 0,22,23
 483.853 736.848 483.853 736.848 535.664 706.057 c 0,24,25
 555.201 694.378 555.201 694.378 563.82 687.006 c 0,26,27
 572.139 679.892 572.139 679.892 589.598 661.185 c 2,28,-1
 603.418 646.378 l 1,29,-1
 519.51 551.834 l 1,30,-1
 509.18 570.706 l 2,31,32
 501.899 584.007 501.899 584.007 469.166 596.928 c 0,33,34
 433.064 611.18 433.064 611.18 408.017 613.021 c 0,35,36
 348.313 615.784 348.313 615.784 291.289 571.059 c 0,37,38
 234.082 526.191 234.082 526.191 207.308 454.606 c 0,39,40
 171.707 357.258 171.707 357.258 199.356 265.553 c 0,41,42
 227.096 173.553 227.096 173.553 304.451 127.065 c 0,43,44
 340.495 105.917 340.495 105.917 379.884 104.997 c 0,45,46
 419.78 104.064 419.78 104.064 455.443 119.853 c 0,47,48
 488.024 134.276 488.024 134.276 519.425 159.858 c 1,49,-1
 521.925 270 l 1,50,-1
 411.768 270 l 1,51,-1
 412.998 383.913 l 1,52,-1
 624.85 385.089 l 1,0,-1
EndSplineSet
EndChar

StartChar: H
Encoding: 72 72 43
Width: 567
GlyphClass: 2
Flags: W
LayerCount: 2
Fore
SplineSet
431.8 714 m 1,0,-1
 536.6 714 l 1,1,-1
 536.6 -20 l 1,2,-1
 431.8 -20 l 1,3,-1
 431.8 291.061 l 1,4,-1
 199.8 291.939 l 1,5,-1
 199.8 -20 l 1,6,-1
 93.4004 -20 l 1,7,-1
 93.4004 710 l 1,8,-1
 198.782 710 l 1,9,-1
 199.8 617.137 l 1,10,-1
 199.8 414 l 1,11,-1
 431.8 414 l 1,12,-1
 431.8 714 l 1,0,-1
EndSplineSet
EndChar

StartChar: I
Encoding: 73 73 44
Width: 186
GlyphClass: 2
Flags: W
LayerCount: 2
Fore
SplineSet
51.0771 716 m 1,0,-1
 155.077 716 l 1,1,-1
 155.923 -19 l 1,2,-1
 51.9229 -19 l 1,3,-1
 51.0771 716 l 1,0,-1
EndSplineSet
EndChar

StartChar: J
Encoding: 74 74 45
Width: 355
GlyphClass: 2
Flags: W
LayerCount: 2
Fore
SplineSet
98.6494 88.2139 m 2,0,1
 123.615 65.6758 123.615 65.6758 150.49 63.9746 c 0,2,3
 177.104 62.29 177.104 62.29 198.06 78.5049 c 128,-1,4
 219.127 94.8076 219.127 94.8076 233.115 133.276 c 0,5,6
 247.622 173.169 247.622 173.169 246.884 227.682 c 2,7,-1
 241.042 720 l 1,8,-1
 345.783 720 l 1,9,-1
 353.277 222.474 l 2,10,11
 354.973 148.296 354.973 148.296 335.262 88.8428 c 0,12,13
 315.271 28.5469 315.271 28.5469 281.217 -5.17676 c 0,14,15
 247.975 -38.0947 247.975 -38.0947 208.187 -52.6904 c 0,16,17
 167.962 -67.4473 167.962 -67.4473 125.637 -59.2646 c 0,18,19
 83.6787 -51.1543 83.6787 -51.1543 48.1514 -24.0762 c 2,20,-1
 35.4004 -14.3574 l 1,21,-1
 83.6201 101.782 l 1,22,-1
 98.6494 88.2139 l 2,0,1
EndSplineSet
EndChar

StartChar: K
Encoding: 75 75 46
Width: 574
GlyphClass: 2
Flags: W
LayerCount: 2
Fore
SplineSet
389.913 706 m 1,0,-1
 522.598 706 l 1,1,-1
 286.83 362.526 l 1,2,-1
 572.478 -22 l 1,3,-1
 436.748 -22 l 1,4,-1
 195.786 306.584 l 1,5,-1
 195.786 -22 l 1,6,-1
 89.3867 -22 l 1,7,-1
 89.3867 706 l 1,8,-1
 195.786 706 l 1,9,-1
 195.786 416.059 l 1,10,-1
 389.913 706 l 1,0,-1
EndSplineSet
EndChar

StartChar: L
Encoding: 76 76 47
Width: 426
GlyphClass: 2
Flags: W
LayerCount: 2
Fore
SplineSet
177 709.786 m 1,0,-1
 177 105 l 1,1,-1
 403.4 105 l 1,2,-1
 403.4 -18 l 1,3,-1
 70.5996 -18 l 1,4,-1
 70.5996 711.216 l 1,5,-1
 177 709.786 l 1,0,-1
EndSplineSet
EndChar

StartChar: M
Encoding: 77 77 48
Width: 660
GlyphClass: 2
Flags: W
LayerCount: 2
Fore
SplineSet
368.576 363.8 m 1,0,-1
 610.396 776.38 l 1,1,-1
 641.394 -24 l 1,2,-1
 540.84 -24 l 1,3,-1
 517.9 402.418 l 1,4,-1
 368.653 157.042 l 1,5,-1
 216.118 405.742 l 1,6,-1
 193.16 -21 l 1,7,-1
 92.6084 -21 l 1,8,-1
 123.595 780.226 l 1,9,-1
 368.576 363.8 l 1,0,-1
EndSplineSet
EndChar

StartChar: N
Encoding: 78 78 49
Width: 581
GlyphClass: 2
Flags: W
LayerCount: 2
Fore
SplineSet
196.6 414.662 m 1,0,-1
 196.6 -17 l 1,1,-1
 95 -17 l 1,2,-1
 95 752.241 l 1,3,-1
 450.743 256.599 l 1,4,-1
 448.502 716 l 1,5,-1
 551 716 l 1,6,-1
 551 -80.3379 l 1,7,-1
 196.6 414.662 l 1,0,-1
EndSplineSet
EndChar

StartChar: O
Encoding: 79 79 50
Width: 676
GlyphClass: 2
Flags: W
LayerCount: 2
Fore
SplineSet
358.57 607 m 0,0,1
 315.864 607 315.864 607 282.067 585.65 c 128,-1,2
 248.317 564.329 248.317 564.329 228.191 529.737 c 0,3,4
 207.366 493.944 207.366 493.944 196.15 448.146 c 128,-1,5
 184.898 402.198 184.898 402.198 185.647 354.392 c 128,-1,6
 186.399 306.528 186.399 306.528 199.184 259.996 c 0,7,8
 211.898 213.718 211.898 213.718 234.209 178.393 c 0,9,10
 255.934 143.996 255.934 143.996 291.428 122.498 c 128,-1,11
 326.924 101 326.924 101 371.251 101 c 0,12,13
 416.541 101 416.541 101 454.155 122.664 c 0,14,15
 491.604 144.234 491.604 144.234 514.468 179.165 c 0,16,17
 537.85 214.886 537.85 214.886 550.519 260.996 c 0,18,19
 563.277 307.431 563.277 307.431 563.651 355.694 c 0,20,21
 564.023 403.534 564.023 403.534 550.633 449.104 c 128,-1,22
 537.207 494.792 537.207 494.792 513.024 530.599 c 0,23,24
 489.479 565.465 489.479 565.465 449.781 586.6 c 0,25,26
 409.696 607.94 409.696 607.94 358.57 607 c 0,0,1
364.051 727 m 0,27,28
 438.567 727 438.567 727 498.815 694.35 c 0,29,30
 559.297 661.573 559.297 661.573 596.862 608.213 c 0,31,32
 634.041 555.402 634.041 555.402 653.87 487.894 c 128,-1,33
 673.672 420.481 673.672 420.481 673.25 350.35 c 128,-1,34
 672.83 280.353 672.83 280.353 653.057 213.559 c 128,-1,35
 633.231 146.589 633.231 146.589 596.47 94.2979 c 0,36,37
 559.315 41.4482 559.315 41.4482 500.042 9.16504 c 0,38,39
 440.986 -23 440.986 -23 369.651 -23 c 0,40,41
 299.781 -23 299.781 -23 243.022 9.29688 c 0,42,43
 186.037 41.7227 186.037 41.7227 150.879 95.3184 c 0,44,45
 116.268 148.08 116.268 148.08 97.7324 214.953 c 128,-1,46
 79.251 281.634 79.251 281.634 79.251 352 c 128,-1,47
 79.251 422.295 79.251 422.295 97.2959 488.914 c 0,48,49
 115.416 555.81 115.416 555.81 149.618 608.588 c 0,50,51
 184.348 662.182 184.348 662.182 240.097 694.631 c 128,-1,52
 295.709 727 295.709 727 364.051 727 c 0,27,28
EndSplineSet
EndChar

StartChar: P
Encoding: 80 80 51
Width: 455
GlyphClass: 2
Flags: W
LayerCount: 2
Fore
SplineSet
76.1514 713.097 m 1,0,-1
 257.661 712.001 l 1,1,2
 311.789 713.091 311.789 713.091 352.577 681.501 c 0,3,4
 393.372 649.908 393.372 649.908 411.794 601.607 c 0,5,6
 429.786 554.431 429.786 554.431 429.351 498.804 c 0,7,8
 428.915 443.236 428.915 443.236 410.095 395.638 c 0,9,10
 390.843 346.947 390.843 346.947 348.889 314.93 c 0,11,12
 306.938 282.916 306.938 282.916 249.706 283.999 c 1,13,-1
 181.751 283.19 l 1,14,-1
 181.751 -16.5703 l 1,15,-1
 76.1514 -19.4395 l 1,16,-1
 76.1514 713.097 l 1,0,-1
181.751 589.824 m 1,17,-1
 181.751 405 l 1,18,-1
 252.151 405 l 2,19,20
 272.781 405 272.781 405 287.887 417.981 c 0,21,22
 303.511 431.408 303.511 431.408 310.867 450.998 c 0,23,24
 318.734 471.949 318.734 471.949 319.772 497.033 c 0,25,26
 320.791 521.649 320.791 521.649 314.095 542.572 c 0,27,28
 307.816 562.192 307.816 562.192 292.773 575.796 c 0,29,30
 278.171 589 278.171 589 256.883 589 c 2,31,-1
 181.751 589.824 l 1,17,-1
EndSplineSet
EndChar

StartChar: Q
Encoding: 81 81 52
Width: 686
GlyphClass: 2
Flags: W
LayerCount: 2
Fore
SplineSet
364.422 607 m 0,0,1
 321.713 607 321.713 607 287.917 585.65 c 0,2,3
 254.101 564.287 254.101 564.287 233.56 529.6 c 0,4,5
 212.44 493.936 212.44 493.936 201.643 448.325 c 0,6,7
 190.746 402.294 190.746 402.294 191.497 354.392 c 0,8,9
 192.248 306.528 192.248 306.528 205.033 259.996 c 0,10,11
 217.747 213.718 217.747 213.718 240.059 178.393 c 0,12,13
 261.782 143.996 261.782 143.996 297.276 122.498 c 0,14,15
 332.772 101 332.772 101 376.3 101 c 0,16,17
 422.359 101 422.359 101 459.55 122.633 c 0,18,19
 496.633 144.204 496.633 144.204 519.517 179.165 c 0,20,21
 542.947 214.961 542.947 214.961 556.016 261.166 c 0,22,23
 569.1 307.432 569.1 307.432 569.1 355.5 c 0,24,25
 569.1 403.54 569.1 403.54 556.032 449.273 c 0,26,27
 543.004 494.868 543.004 494.868 518.874 530.599 c 0,28,29
 495.345 565.439 495.345 565.439 455.279 586.574 c 0,30,31
 414.771 607.941 414.771 607.941 364.422 607 c 0,0,1
369.9 727 m 0,32,33
 444.416 727 444.416 727 504.665 694.35 c 0,34,35
 565.189 661.549 565.189 661.549 602.371 608.127 c 0,36,37
 639.106 555.346 639.106 555.346 658.919 487.894 c 0,38,39
 678.7 420.552 678.7 420.552 678.7 350.5 c 0,40,41
 678.7 280.352 678.7 280.352 658.467 213.429 c 0,42,43
 638.258 146.586 638.258 146.586 601.979 94.3838 c 0,44,45
 565.206 41.4707 565.206 41.4707 505.892 9.16504 c 0,46,47
 446.835 -23 446.835 -23 374.7 -23 c 0,48,49
 304.83 -23 304.83 -23 248.071 9.29688 c 0,50,51
 191.041 41.749 191.041 41.749 156.267 95.4111 c 0,52,53
 122.137 148.081 122.137 148.081 103.219 214.82 c 0,54,55
 84.2998 281.562 84.2998 281.562 84.2998 352 c 0,56,57
 84.2998 422.367 84.2998 422.367 102.781 489.047 c 0,58,59
 121.302 555.866 121.302 555.866 155.467 608.588 c 0,60,61
 190.197 662.182 190.197 662.182 245.945 694.631 c 0,62,63
 301.559 727 301.559 727 369.9 727 c 0,32,33
545.834 212.323 m 1,64,-1
 665.76 45.8799 l 1,65,-1
 580.873 -41.8369 l 1,66,-1
 473.863 111.824 l 1,67,-1
 409.254 203.433 l 1,68,-1
 492.54 287.575 l 1,69,-1
 545.834 212.323 l 1,64,-1
EndSplineSet
EndChar

StartChar: R
Encoding: 82 82 53
Width: 449
GlyphClass: 2
Flags: W
LayerCount: 2
Fore
SplineSet
81.6084 719.903 m 1,0,-1
 263.085 720.999 l 2,1,2
 308.424 722.089 308.424 722.089 344.691 699.975 c 0,3,4
 381.172 677.732 381.172 677.732 401.937 641.053 c 0,5,6
 422.153 605.345 422.153 605.345 430.464 560.515 c 0,7,8
 438.779 515.659 438.779 515.659 433.064 472.253 c 0,9,10
 427.338 428.76 427.338 428.76 407.214 388.838 c 0,11,12
 390.955 356.586 390.955 356.586 366.897 334.115 c 1,13,-1
 503.158 -19 l 1,14,-1
 386.831 -19 l 1,15,-1
 266.329 293.229 l 1,16,17
 261.096 293 261.096 293 255.352 293 c 2,18,-1
 187.481 292.192 l 1,19,-1
 190.684 -19 l 1,20,-1
 84.1455 -19 l 1,21,-1
 81.6084 719.903 l 1,0,-1
187.276 598 m 1,22,-1
 187.276 414 l 1,23,-1
 258.477 414 l 2,24,25
 278.307 414 278.307 414 293.412 426.981 c 0,26,27
 309.153 440.509 309.153 440.509 316.908 460.297 c 0,28,29
 325.004 480.96 325.004 480.96 325.687 505.689 c 0,30,31
 326.37 530.483 326.37 530.483 319.621 551.572 c 0,32,33
 313.342 571.192 313.342 571.192 298.299 584.796 c 0,34,35
 283.696 598 283.696 598 262.477 598 c 2,36,-1
 187.276 598 l 1,22,-1
EndSplineSet
EndChar

StartChar: S
Encoding: 83 83 54
Width: 474
GlyphClass: 2
Flags: W
LayerCount: 2
Fore
SplineSet
256.572 725 m 0,0,1
 306.513 725 306.513 725 337.603 715.418 c 0,2,3
 370.108 705.401 370.108 705.401 401.596 674.787 c 2,4,-1
 413.496 663.217 l 1,5,-1
 358.183 562.51 l 1,6,-1
 344.682 576.686 l 2,7,8
 309.85 613.259 309.85 613.259 252.651 606.11 c 0,9,10
 229.518 602.898 229.518 602.898 214.286 583.858 c 0,11,12
 198.916 564.646 198.916 564.646 196.433 541.357 c 0,13,14
 194.1 519.489 194.1 519.489 209.748 493.539 c 0,15,16
 226.472 465.811 226.472 465.811 264.285 448.866 c 2,17,-1
 329.076 420.87 l 2,18,19
 353.272 410.068 353.272 410.068 376.012 391.834 c 0,20,21
 399.146 373.284 399.146 373.284 419.057 344.609 c 0,22,23
 439.062 315.796 439.062 315.796 450.842 281.985 c 0,24,25
 463.054 246.931 463.054 246.931 462.168 202.006 c 0,26,27
 461.287 157.451 461.287 157.451 444.721 111.678 c 0,28,29
 384.543 -50.7588 384.543 -50.7588 197.672 -19.8271 c 0,30,-1
 196.874 -19.6689 l 1,31,32
 165.507 -12.4463 165.507 -12.4463 142.968 -3.57715 c 0,33,34
 120.438 5.28906 120.438 5.28906 110.752 10.793 c 0,35,36
 101.513 16.042 101.513 16.042 73.8857 34.3242 c 2,37,-1
 63.4961 41.2002 l 1,38,-1
 83.8008 177.978 l 1,39,-1
 102.5 167.146 l 2,40,41
 166.756 129.925 166.756 129.925 209.451 116.34 c 0,42,43
 233.916 108 233.916 108 258.572 108 c 0,44,45
 281.646 108 281.646 108 305.103 122.442 c 0,46,47
 327.791 136.41 327.791 136.41 342.362 162.915 c 1,48,49
 361.481 201.777 361.481 201.777 347.654 239.095 c 0,50,51
 333.004 278.635 333.004 278.635 297.285 292.956 c 2,52,-1
 296.547 293.252 l 1,53,-1
 295.835 293.636 l 2,54,55
 256.053 315.087 256.053 315.087 233.332 324.931 c 1,56,57
 180.46 344.33 180.46 344.33 145.711 381.868 c 0,58,59
 110.179 420.251 110.179 420.251 97.1523 464.608 c 0,60,61
 84.1973 508.723 84.1973 508.723 89.1074 555.597 c 0,62,63
 94.0068 602.36 94.0068 602.36 114.582 639.82 c 0,64,65
 135.298 677.537 135.298 677.537 172.95 701.346 c 0,66,67
 210.354 725 210.354 725 256.572 725 c 0,0,1
EndSplineSet
EndChar

StartChar: T
Encoding: 84 84 55
Width: 441
GlyphClass: 2
Flags: W
LayerCount: 2
Fore
SplineSet
45.7998 706 m 1,0,-1
 444.2 706 l 1,1,-1
 444.2 586.11 l 1,2,-1
 298.495 585.109 l 1,3,-1
 295.294 -20 l 1,4,-1
 189.8 -20 l 1,5,-1
 189.8 1.0498 l 1,6,-1
 192.121 585.11 l 1,7,-1
 45.7998 586.109 l 1,8,-1
 45.7998 706 l 1,0,-1
EndSplineSet
EndChar

StartChar: U
Encoding: 85 85 56
Width: 532
GlyphClass: 2
Flags: W
LayerCount: 2
Fore
SplineSet
191.018 705.433 m 1,0,-1
 192.695 266.048 l 2,1,2
 192.695 227.465 192.695 227.465 201.764 195.727 c 0,3,4
 210.62 164.727 210.62 164.727 224.676 146.302 c 128,-1,5
 238.839 127.734 238.839 127.734 257.064 117.847 c 128,-1,6
 275.217 108 275.217 108 293.896 108 c 128,-1,7
 312.441 108 312.441 108 330.495 118.219 c 0,8,9
 348.953 128.667 348.953 128.667 363.648 147.475 c 0,10,11
 378.052 165.906 378.052 165.906 387.271 197.377 c 0,12,13
 396.76 229.764 396.76 229.764 397.499 270.454 c 2,14,-1
 398.35 317.216 l 1,15,-1
 399.002 316.401 l 1,16,-1
 398.257 702 l 1,17,-1
 502.942 702 l 1,18,-1
 506.295 265.247 l 2,19,20
 507.144 196.23 507.144 196.23 489.111 140.948 c 0,21,22
 470.949 85.2725 470.949 85.2725 440.684 50.7305 c 0,23,24
 410.781 16.6025 410.781 16.6025 372.258 -1.25195 c 128,-1,25
 333.799 -19.0771 333.799 -19.0771 293.552 -17.9951 c 0,26,27
 253.465 -16.918 253.465 -16.918 215.582 1.91602 c 128,-1,28
 177.609 20.7939 177.609 20.7939 148.222 54.8291 c 0,29,30
 118.283 89.5 118.283 89.5 101.351 144.857 c 0,31,32
 84.7432 199.152 84.7432 199.152 86.2939 264.296 c 1,33,-1
 84.6201 702.573 l 1,34,-1
 191.018 705.433 l 1,0,-1
EndSplineSet
EndChar

StartChar: V
Encoding: 86 86 57
Width: 607
GlyphClass: 2
Flags: W
LayerCount: 2
Fore
SplineSet
408.938 437.142 m 1,0,-1
 504.233 713 l 1,1,-1
 614.529 713 l 1,2,-1
 330.954 -88.1191 l 1,3,-1
 291.978 31.3242 l 1,4,-1
 61 713 l 1,5,-1
 170.908 713 l 1,6,-1
 265.507 436.74 l 1,7,-1
 333.168 231.102 l 1,8,-1
 408.938 437.142 l 1,0,-1
EndSplineSet
EndChar

StartChar: W
Encoding: 87 87 58
Width: 778
GlyphClass: 2
Flags: W
LayerCount: 2
Fore
SplineSet
435.764 318.132 m 1,0,-1
 300.808 -76.8359 l 1,1,-1
 85.7314 712 l 1,2,-1
 189.927 712 l 1,3,-1
 307.434 282.435 l 1,4,-1
 406.172 567.85 l 1,5,-1
 433.88 650.109 l 1,6,-1
 461.235 566.761 l 1,7,-1
 559.103 283.596 l 1,8,-1
 675.871 713.165 l 1,9,-1
 779.148 711.681 l 1,10,-1
 564.657 -76.0449 l 1,11,-1
 435.764 318.132 l 1,0,-1
EndSplineSet
EndChar

StartChar: X
Encoding: 88 88 59
Width: 625
GlyphClass: 2
Flags: W
LayerCount: 2
Fore
SplineSet
61.5449 -20 m 1,0,-1
 132.125 104.318 l 1,1,-1
 283.559 389.697 l 1,2,-1
 189.047 558.469 l 1,3,-1
 98.3125 718 l 1,4,-1
 234.429 718 l 1,5,-1
 311.311 581.321 l 1,6,-1
 348.421 512.107 l 1,7,-1
 391.214 593.108 l 1,8,-1
 457.564 715.9 l 1,9,-1
 580.866 717.354 l 1,10,-1
 564.266 685.97 l 2,11,12
 556.35 671.004 556.35 671.004 540.516 640.731 c 0,13,14
 524.68 610.458 524.68 610.458 517.213 596.34 c 0,15,16
 514.396 590.987 514.396 590.987 509.105 580.59 c 0,17,18
 503.813 570.194 503.813 570.194 501.089 565.013 c 2,19,-1
 411.718 395.095 l 1,20,-1
 571.72 96.0723 l 1,21,-1
 571.72 94.8857 l 1,22,-1
 631.649 -21.3555 l 1,23,-1
 510.386 -19.8984 l 1,24,-1
 460.142 72.6553 l 1,25,-1
 347.311 274.395 l 1,26,-1
 246.059 82.334 l 1,27,-1
 196.762 -20 l 1,28,-1
 61.5449 -20 l 1,0,-1
EndSplineSet
EndChar

StartChar: Y
Encoding: 89 89 60
Width: 543
GlyphClass: 2
Flags: W
LayerCount: 2
Fore
SplineSet
43.3662 712 m 1,0,-1
 166.551 712 l 1,1,-1
 303.422 454.427 l 1,2,-1
 437.285 712 l 1,3,-1
 560.344 712 l 1,4,-1
 359.571 328.043 l 1,5,-1
 359.571 -16.4424 l 1,6,-1
 242.418 -20.5869 l 1,7,-1
 248.293 325.627 l 1,8,-1
 43.3662 712 l 1,0,-1
EndSplineSet
EndChar

StartChar: Z
Encoding: 90 90 61
Width: 715
GlyphClass: 2
Flags: W
LayerCount: 2
Fore
SplineSet
199.183 702 m 1,0,-1
 654.655 702 l 1,1,-1
 593.422 581.145 l 1,2,-1
 346.496 113 l 1,3,-1
 635.983 113 l 1,4,-1
 635.983 -17.9277 l 1,5,-1
 145.175 -20.1387 l 1,6,-1
 162.875 11.4688 l 2,7,8
 168.599 21.6904 168.599 21.6904 184.727 48.9043 c 0,9,10
 200.453 75.4443 200.453 75.4443 215.397 103.956 c 2,11,-1
 463.183 577 l 1,12,-1
 199.183 577 l 1,13,-1
 199.183 702 l 1,0,-1
EndSplineSet
EndChar

StartChar: bracketleft
Encoding: 91 91 62
Width: 313
GlyphClass: 2
Flags: W
LayerCount: 2
Fore
SplineSet
68.4219 -20 m 1,0,-1
 68.4219 724.43 l 1,1,-1
 159.792 722 l 1,2,-1
 278.194 722 l 1,3,-1
 277.051 589 l 1,4,-1
 175.622 589 l 1,5,-1
 175.622 112 l 1,6,-1
 279.797 112 l 1,7,-1
 278.649 -20 l 1,8,-1
 68.4219 -20 l 1,0,-1
EndSplineSet
EndChar

StartChar: backslash
Encoding: 92 92 63
Width: 442
GlyphClass: 2
Flags: W
LayerCount: 2
Fore
SplineSet
298.964 -20 m 1,0,-1
 73.0488 724.588 l 1,1,-1
 187.423 721.729 l 1,2,-1
 419.028 -20 l 1,3,-1
 298.964 -20 l 1,0,-1
EndSplineSet
EndChar

StartChar: bracketright
Encoding: 93 93 64
Width: 309
GlyphClass: 2
Flags: W
LayerCount: 2
Fore
SplineSet
277.578 -20 m 1,0,-1
 67.3516 -20 l 1,1,-1
 66.2031 112 l 1,2,-1
 170.378 112 l 1,3,-1
 170.378 589 l 1,4,-1
 68.9492 589 l 1,5,-1
 67.8047 722 l 1,6,-1
 186.208 722 l 1,7,-1
 277.578 724.43 l 1,8,-1
 277.578 -20 l 1,0,-1
EndSplineSet
EndChar

StartChar: asciicircum
Encoding: 94 94 65
Width: 544
GlyphClass: 2
Flags: W
LayerCount: 2
Fore
SplineSet
448.941 510 m 1,0,-1
 340.605 510 l 1,1,-1
 305.981 573.696 l 1,2,-1
 267.503 510.108 l 1,3,-1
 153.837 508.564 l 1,4,-1
 308.029 768.508 l 1,5,-1
 448.941 510 l 1,0,-1
EndSplineSet
EndChar

StartChar: underscore
Encoding: 95 95 66
Width: 503
GlyphClass: 2
Flags: W
LayerCount: 2
Fore
SplineSet
480.7 20 m 1,0,-1
 480.7 -102 l 1,1,-1
 78.2998 -102 l 1,2,-1
 78.2998 20 l 1,3,-1
 480.7 20 l 1,0,-1
EndSplineSet
EndChar

StartChar: grave
Encoding: 96 96 67
Width: 899
GlyphClass: 2
Flags: W
LayerCount: 2
Fore
SplineSet
468.095 1014.89 m 1,0,-1
 603.469 837.215 l 1,1,-1
 541.645 764.572 l 1,2,-1
 396.288 909.211 l 1,3,-1
 468.095 1014.89 l 1,0,-1
EndSplineSet
EndChar

StartChar: a
Encoding: 97 97 68
Width: 456
GlyphClass: 2
Flags: W
LayerCount: 2
Fore
SplineSet
60.0049 206.83 m 1,0,1
 60.0049 267.049 60.0049 267.049 76.4648 315.779 c 0,2,3
 93.1562 365.195 93.1562 365.195 121.687 395.286 c 0,4,5
 149.538 424.661 149.538 424.661 184.319 439.877 c 0,6,7
 219.344 455.201 219.344 455.201 256.544 452.465 c 0,8,9
 293.55 449.745 293.55 449.745 325.735 431.26 c 2,10,-1
 329.604 429.032 l 1,11,-1
 329.604 447 l 1,12,-1
 436.042 447 l 1,13,-1
 435.167 -20 l 1,14,-1
 330.404 -20 l 1,15,-1
 330.404 -3.39453 l 1,16,17
 308.093 -16.542 308.093 -16.542 283.51 -22.6201 c 0,18,19
 243.774 -32.4443 243.774 -32.4443 205.259 -21.5029 c 0,20,21
 167.208 -10.6924 167.208 -10.6924 135.171 15.8242 c 0,22,23
 102.1 43.1982 102.1 43.1982 81.3887 93.3223 c 0,24,25
 60.8701 142.981 60.8701 142.981 60.0049 206.83 c 1,0,1
160.805 210 m 0,26,27
 160.805 170.866 160.805 170.866 175.471 142.302 c 0,28,29
 189.751 114.488 189.751 114.488 211.072 104.796 c 0,30,31
 234.71 94.0508 234.71 94.0508 259.373 94.498 c 0,32,33
 281.623 94.9014 281.623 94.9014 300.597 113.302 c 128,-1,34
 319.559 131.691 319.559 131.691 326.152 162.187 c 0,35,36
 328.753 174.378 328.753 174.378 328.01 212.006 c 0,37,38
 327.275 249.133 327.275 249.133 325.905 261.968 c 1,39,40
 319.609 290.108 319.609 290.108 305.621 307.196 c 0,41,42
 291.095 324.943 291.095 324.943 273.258 330.618 c 0,43,44
 254.673 336.531 254.673 336.531 234.537 331.839 c 128,-1,45
 214.502 327.169 214.502 327.169 198.231 312.34 c 0,46,47
 182.175 297.706 182.175 297.706 171.516 271.056 c 128,-1,48
 160.805 244.279 160.805 244.279 160.805 210 c 0,26,27
EndSplineSet
EndChar

StartChar: b
Encoding: 98 98 69
Width: 460
GlyphClass: 2
Flags: W
LayerCount: 2
Fore
SplineSet
446.997 206.83 m 0,0,1
 446.132 142.982 446.132 142.982 425.613 93.3223 c 0,2,3
 404.902 43.1982 404.902 43.1982 371.831 15.8242 c 0,4,5
 339.794 -10.6924 339.794 -10.6924 301.743 -21.5029 c 0,6,7
 263.228 -32.4443 263.228 -32.4443 223.492 -22.6201 c 0,8,9
 198.909 -16.542 198.909 -16.542 176.598 -3.39453 c 1,10,-1
 176.598 -20 l 1,11,-1
 71.8184 -20 l 1,12,-1
 70.9756 768 l 1,13,-1
 177.397 768 l 1,14,-1
 177.397 424.715 l 1,15,16
 191.345 434.905 191.345 434.905 202.114 439.047 c 0,17,18
 228.284 449.951 228.284 449.951 257.155 450.498 c 0,19,20
 285.679 451.037 285.679 451.037 312.936 442.385 c 0,21,22
 340.759 433.552 340.759 433.552 365.417 413.188 c 0,23,24
 389.969 392.91 389.969 392.91 407.961 364.383 c 0,25,26
 426.154 335.54 426.154 335.54 436.636 294.596 c 0,27,28
 446.997 254.123 446.997 254.123 446.997 206.83 c 0,0,1
338.997 211 m 0,29,30
 338.997 250.321 338.997 250.321 324.585 279.49 c 0,31,32
 310.507 307.982 310.507 307.982 290.094 318.513 c 0,33,34
 267.941 329.941 267.941 329.941 244.436 329.502 c 0,35,36
 223.134 329.105 223.134 329.105 205.02 310.91 c 0,37,38
 187.271 293.081 187.271 293.081 180.304 261.04 c 1,39,40
 178.924 248.162 178.924 248.162 178.191 212.487 c 0,41,42
 177.455 176.55 177.455 176.55 180.014 165.357 c 0,43,44
 186.632 134.745 186.632 134.745 204.742 117.363 c 0,45,46
 222.938 99.8984 222.938 99.8984 244.436 99.498 c 0,47,48
 268.169 99.0547 268.169 99.0547 290.501 109.69 c 0,49,50
 310.862 119.385 310.862 119.385 324.82 145.973 c 0,51,52
 338.997 172.977 338.997 172.977 338.997 211 c 0,29,30
EndSplineSet
EndChar

StartChar: c
Encoding: 99 99 70
Width: 379
GlyphClass: 2
Flags: W
LayerCount: 2
Fore
SplineSet
270.469 449.888 m 0,0,1
 316.939 443.433 316.939 443.433 348.426 421.566 c 0,2,3
 351.24 419.69 351.24 419.69 353.475 418.617 c 128,-1,4
 355.71 417.543 355.71 417.543 356.562 417.136 c 128,-1,5
 357.416 416.729 357.416 416.729 359.19 414.95 c 128,-1,6
 360.965 413.172 360.965 413.172 364.157 409.182 c 0,7,8
 365.346 408.005 365.346 408.005 366.599 406.787 c 2,9,-1
 378.129 395.578 l 1,10,-1
 317.36 277.08 l 1,11,-1
 303.668 301.531 l 2,12,13
 300.805 306.645 300.805 306.645 287.233 313.43 c 0,14,15
 271.526 321.284 271.526 321.284 260.593 323.123 c 0,16,17
 231.959 326.392 231.959 326.392 206.182 311.784 c 0,18,19
 181.168 297.61 181.168 297.61 168.434 267.445 c 0,20,21
 149.037 224.152 149.037 224.152 156.698 185.851 c 0,22,23
 164.263 148.028 164.263 148.028 196.776 124.32 c 0,24,25
 215.655 110.835 215.655 110.835 237.535 109.98 c 0,26,27
 270.71 107.333 270.71 107.333 295.405 124.483 c 2,28,-1
 295.928 124.846 l 1,29,-1
 296.471 125.159 l 2,30,31
 304.954 130.054 304.954 130.054 308.133 133.364 c 2,32,-1
 322.735 148.576 l 1,33,-1
 374.74 35.8984 l 1,34,-1
 365.021 25.0693 l 2,35,36
 323.599 -21.0801 323.599 -21.0801 241.491 -20 c 0,37,38
 177.847 -20 177.847 -20 142.879 6.89844 c 0,39,40
 71.8857 59.9268 71.8857 59.9268 52.166 148.116 c 0,41,42
 32.3994 236.518 32.3994 236.518 72.3906 326.716 c 0,43,44
 102.101 393.345 102.101 393.345 156.746 425.587 c 0,45,46
 210.766 457.458 210.766 457.458 270.469 449.888 c 0,0,1
EndSplineSet
EndChar

StartChar: d
Encoding: 100 100 71
Width: 463
GlyphClass: 2
Flags: W
LayerCount: 2
Fore
SplineSet
69.8994 206.618 m 0,0,1
 69.04 261.45 69.04 261.45 82.9229 307.547 c 0,2,3
 96.9961 354.274 96.9961 354.274 121.198 383.406 c 0,4,5
 144.593 411.565 144.593 411.565 175.223 430.439 c 0,6,7
 206.667 449.814 206.667 449.814 240.058 451.484 c 0,8,9
 271.877 453.075 271.877 453.075 303.521 445.592 c 0,10,11
 323.666 439.997 323.666 439.997 338.697 433.479 c 1,12,-1
 338.697 768 l 1,13,-1
 445.118 768 l 1,14,-1
 444.275 -20 l 1,15,-1
 340.712 -20 l 1,16,-1
 340.358 -3.18555 l 1,17,18
 337.507 -5.25391 337.507 -5.25391 335.424 -6.37012 c 0,19,20
 303.261 -23.7559 303.261 -23.7559 266.848 -26.4648 c 0,21,22
 230.166 -29.1943 230.166 -29.1943 196.037 -14.9736 c 0,23,24
 162.279 -0.908203 162.279 -0.908203 134.142 26.1475 c 0,25,26
 104.976 54.1924 104.976 54.1924 87.7256 101.74 c 0,27,28
 70.7607 148.501 70.7607 148.501 69.8994 206.618 c 0,0,1
177.097 211 m 0,29,30
 177.097 173.095 177.097 173.095 191.577 146.154 c 0,31,32
 205.943 119.428 205.943 119.428 226.393 109.69 c 0,33,34
 248.726 99.0547 248.726 99.0547 272.458 99.498 c 0,35,36
 293.957 99.8984 293.957 99.8984 312.152 117.363 c 0,37,38
 330.01 134.503 330.01 134.503 336.73 164.664 c 1,39,40
 338.662 177.246 338.662 177.246 338.299 212.744 c 0,41,42
 337.934 248.308 337.934 248.308 336.613 260.812 c 1,43,44
 328.984 292.92 328.984 292.92 311.074 310.91 c 0,45,46
 292.959 329.107 292.959 329.107 272.055 329.502 c 0,47,48
 248.905 329.94 248.905 329.94 226.319 318.471 c 0,49,50
 205.562 307.93 205.562 307.93 191.51 279.49 c 0,51,52
 177.097 250.322 177.097 250.322 177.097 211 c 0,29,30
EndSplineSet
EndChar

StartChar: e
Encoding: 101 101 72
Width: 449
GlyphClass: 2
Flags: W
LayerCount: 2
Fore
SplineSet
423.979 68.7217 m 2,0,1
 399.193 28.8896 399.193 28.8896 352.588 1.91895 c 0,2,3
 327.076 -13.4766 327.076 -13.4766 289.869 -18.8848 c 0,4,5
 272.947 -21 272.947 -21 256.148 -21 c 0,6,7
 233.225 -21 233.225 -21 212.491 -16.6807 c 0,8,9
 163.554 -4.66406 163.554 -4.66406 128.459 30.9775 c 128,-1,10
 93.3418 66.6445 93.3418 66.6445 77.3896 114.277 c 0,11,12
 61.7158 161.081 61.7158 161.081 62.1494 214.204 c 128,-1,13
 62.582 267.174 62.582 267.174 78.625 314.327 c 0,14,15
 94.9502 362.309 94.9502 362.309 130.352 398.911 c 128,-1,16
 165.834 435.598 165.834 435.598 213.096 447.633 c 0,17,18
 236.278 453 236.278 453 260.949 453 c 0,19,20
 283.932 453 283.932 453 303.889 448.661 c 0,21,22
 357.23 435.326 357.23 435.326 389.968 390.481 c 0,23,24
 422.177 346.359 422.177 346.359 431.044 290.385 c 0,25,26
 439.629 236.192 439.629 236.192 431.1 176.484 c 2,27,-1
 428.752 160.051 l 1,28,-1
 178.791 159.09 l 1,29,30
 186.356 141.61 186.356 141.61 197.525 130.832 c 0,31,32
 216.576 112.45 216.576 112.45 260.656 107.933 c 0,33,-1
 261.979 107.728 l 2,34,35
 269.502 106.16 269.502 106.16 279.808 107.407 c 128,-1,36
 290.175 108.661 290.175 108.661 309.058 117.285 c 0,37,38
 326.418 125.214 326.418 125.214 339.37 140.311 c 2,39,-1
 339.702 140.726 l 1,40,-1
 340.035 141.142 l 1,41,-1
 348.869 152.184 l 1,42,-1
 427.349 93.3242 l 1,43,-1
 427.349 74.1377 l 1,44,-1
 423.979 68.7217 l 2,0,1
329.604 271.903 m 1,45,46
 323.533 305.466 323.533 305.466 307.216 320.733 c 128,-1,47
 290.899 336 290.899 336 260.148 336 c 0,48,49
 221.693 336 221.693 336 199.114 309.436 c 0,50,51
 184.152 291.833 184.152 291.833 177.426 271.107 c 1,52,-1
 329.604 271.903 l 1,45,46
EndSplineSet
EndChar

StartChar: f
Encoding: 102 102 73
Width: 323
GlyphClass: 2
Flags: W
LayerCount: 2
Fore
SplineSet
84.8848 -20 m 1,0,-1
 84.8848 326 l 1,1,-1
 44.8848 326 l 1,2,-1
 44.8848 442 l 1,3,-1
 88.4062 442 l 1,4,5
 90.1934 494.211 90.1934 494.211 100.889 534.762 c 0,6,7
 114.136 584.99 114.136 584.99 136.608 611.934 c 0,8,9
 158.396 638.054 158.396 638.054 181.593 649.994 c 0,10,11
 204.92 662 204.92 662 228.885 662 c 0,12,13
 244.6 662 244.6 662 257.044 657.812 c 0,14,15
 268.505 653.956 268.505 653.956 279.919 647.919 c 0,16,17
 289.172 643.026 289.172 643.026 294.365 641.403 c 2,18,-1
 315.96 634.654 l 1,19,-1
 257.619 520.708 l 1,20,-1
 234.704 535.871 l 1,21,22
 214.853 534.296 214.853 534.296 206.688 516.886 c 0,23,24
 197.142 496.531 197.142 496.531 195.55 442 c 1,25,-1
 277.685 442 l 1,26,-1
 277.685 324 l 1,27,-1
 192.931 324 l 1,28,-1
 193.73 -20 l 1,29,-1
 84.8848 -20 l 1,0,-1
EndSplineSet
EndChar

StartChar: g
Encoding: 103 103 74
Width: 428
GlyphClass: 2
Flags: W
LayerCount: 2
Fore
SplineSet
158.01 224 m 0,0,1
 158.01 191.097 158.01 191.097 171.688 165.657 c 128,-1,2
 185.473 140.021 185.473 140.021 205.171 129.351 c 0,3,4
 226.127 118 226.127 118 248.01 118 c 0,5,6
 267.451 118 267.451 118 283.813 134.913 c 0,7,8
 299.761 151.397 299.761 151.397 306.02 181.463 c 1,9,10
 306.104 192.4 306.104 192.4 306.821 215.284 c 0,11,12
 307.583 239.559 307.583 239.559 306.864 250.339 c 2,13,-1
 306.81 251.168 l 1,14,-1
 306.81 252 l 2,15,16
 306.81 278.568 306.81 278.568 296.608 296.342 c 128,-1,17
 286.309 314.289 286.309 314.289 270.99 321.182 c 0,18,19
 254.278 328.702 254.278 328.702 234.161 326.571 c 0,20,21
 213.88 324.423 213.88 324.423 196.812 312.902 c 0,22,23
 180.632 301.98 180.632 301.98 169.286 278.62 c 128,-1,24
 158.01 255.404 158.01 255.404 158.01 224 c 0,0,1
416.409 5.9502 m 2,25,26
 416.409 -112.168 416.409 -112.168 341.658 -180.322 c 1,27,28
 299.144 -216.859 299.144 -216.859 241.572 -218.495 c 0,29,30
 184.546 -220.115 184.546 -220.115 139.254 -189.629 c 0,31,32
 115.287 -173.652 115.287 -173.652 110.023 -170.109 c 0,33,34
 103.133 -165.471 103.133 -165.471 93.7061 -154.866 c 2,35,-1
 84.5967 -144.618 l 1,36,-1
 126.134 -42.2178 l 1,37,-1
 140.364 -51.1113 l 2,38,39
 142.058 -52.1689 142.058 -52.1689 186.866 -81.1748 c 0,40,41
 203.104 -91.3223 203.104 -91.3223 223.11 -93.0479 c 0,42,43
 243.389 -94.7959 243.389 -94.7959 261.785 -87.8535 c 0,44,45
 279.523 -81.1602 279.523 -81.1602 294.447 -64.2012 c 0,46,47
 307.656 -49.1904 307.656 -49.1904 313.134 -27.4707 c 1,48,-1
 312.404 -0.164062 l 1,49,-1
 312.652 18.1064 l 1,50,51
 302.072 10.8506 302.072 10.8506 290.739 6.05566 c 0,52,53
 262.021 -6.09473 262.021 -6.09473 231.152 -4.99219 c 128,-1,54
 200.309 -3.89062 200.309 -3.89062 169.667 11.4307 c 0,55,56
 139.287 26.6201 139.287 26.6201 114.924 52.1807 c 0,57,58
 89.7451 78.5957 89.7451 78.5957 74.2441 121.224 c 0,59,60
 58.8848 163.461 58.8848 163.461 58.0098 213.783 c 1,61,62
 58.0098 267.852 58.0098 267.852 72.7539 313.928 c 0,63,64
 87.7402 360.76 87.7402 360.76 114.117 390.378 c 0,65,66
 139.771 419.185 139.771 419.185 171.528 435.499 c 0,67,68
 203.84 452.098 203.84 452.098 239.604 450.994 c 128,-1,69
 275.298 449.892 275.298 449.892 307.74 431.26 c 2,70,-1
 310.754 429.545 l 1,71,-1
 310.404 447 l 1,72,-1
 418.086 447 l 1,73,-1
 416.409 5.9502 l 2,25,26
EndSplineSet
EndChar

StartChar: h
Encoding: 104 104 75
Width: 438
GlyphClass: 2
Flags: W
LayerCount: 2
Fore
SplineSet
414.197 229 m 2,0,-1
 414.197 71.5 l 2,1,2
 414.197 61.7207 414.197 61.7207 413.791 43.4443 c 0,3,4
 413.397 25.7246 413.397 25.7246 413.397 -1 c 2,5,-1
 413.397 -21 l 1,6,-1
 306.197 -21 l 1,7,-1
 306.197 -1 l 2,8,9
 306.197 31.1562 306.197 31.1562 306.599 63.3125 c 0,10,11
 306.997 95.1348 306.997 95.1348 306.998 131.5 c 2,12,-1
 306.997 235 l 2,13,14
 306.997 268.731 306.997 268.731 297.073 290.648 c 0,15,16
 287.595 311.581 287.595 311.581 274.231 319.376 c 0,17,18
 260.025 327.663 260.025 327.663 243.002 326.057 c 0,19,20
 225.581 324.413 225.581 324.413 210.829 313.35 c 0,21,22
 196.26 302.423 196.26 302.423 186.317 281.71 c 0,23,24
 176.598 261.461 176.598 261.461 176.598 235 c 2,25,-1
 176.598 -21 l 1,26,-1
 72.6191 -21 l 1,27,-1
 71.7773 760.75 l 1,28,-1
 178.197 769.332 l 1,29,-1
 178.197 425.622 l 1,30,31
 191.01 435.59 191.01 435.59 202.119 440.053 c 0,32,33
 230.37 452 230.37 452 259.798 452 c 0,34,35
 338.055 452 338.055 452 376.858 389.229 c 0,36,37
 414.197 328.827 414.197 328.827 414.197 229 c 2,0,-1
EndSplineSet
EndChar

StartChar: i
Encoding: 105 105 76
Width: 186
GlyphClass: 2
Flags: W
LayerCount: 2
Fore
SplineSet
45.5 545 m 0,0,1
 45.5 577.477 45.5 577.477 64.5684 596.979 c 0,2,3
 82.0107 614.818 82.0107 614.818 103.09 615.493 c 0,4,5
 124.465 616.179 124.465 616.179 142.201 598.71 c 0,6,7
 161.5 579.703 161.5 579.703 161.5 546 c 0,8,9
 161.5 511.951 161.5 511.951 142.861 491.477 c 0,10,11
 125.132 472 125.132 472 103.5 472 c 0,12,13
 82.0273 472 82.0273 472 64.3486 490.75 c 0,14,15
 45.5 510.74 45.5 510.74 45.5 545 c 0,0,1
51.8262 453 m 1,16,-1
 157.5 453 l 1,17,-1
 157.5 -22 l 1,18,-1
 53.5732 -22 l 1,19,-1
 51.8262 453 l 1,16,-1
EndSplineSet
EndChar

StartChar: j
Encoding: 106 106 77
Width: 186
GlyphClass: 2
Flags: W
LayerCount: 2
Fore
SplineSet
45.5 545 m 0,0,1
 45.5 577.477 45.5 577.477 64.5684 596.979 c 0,2,3
 82.0107 614.818 82.0107 614.818 103.09 615.493 c 0,4,5
 124.465 616.179 124.465 616.179 142.201 598.71 c 0,6,7
 161.5 579.703 161.5 579.703 161.5 546 c 0,8,9
 161.5 511.951 161.5 511.951 142.861 491.477 c 0,10,11
 125.132 472 125.132 472 103.5 472 c 0,12,13
 82.0273 472 82.0273 472 64.3486 490.75 c 0,14,15
 45.5 510.74 45.5 510.74 45.5 545 c 0,0,1
51.9004 450 m 1,16,-1
 157.53 450 l 1,17,-1
 156.67 -122 l 1,18,-1
 51.9004 -122 l 1,19,-1
 51.9004 450 l 1,16,-1
EndSplineSet
EndChar

StartChar: k
Encoding: 107 107 78
Width: 447
GlyphClass: 2
Flags: W
LayerCount: 2
Fore
SplineSet
185.802 768 m 1,0,-1
 185.047 286.379 l 1,1,-1
 311.999 445.07 l 1,2,-1
 451.138 443.596 l 1,3,-1
 278.744 227.005 l 1,4,-1
 475.156 -19.5967 l 1,5,-1
 335.999 -21.0703 l 1,6,-1
 184.971 167.716 l 1,7,-1
 184.971 -20 l 1,8,-1
 78.5488 -20 l 1,9,-1
 79.3916 768 l 1,10,-1
 185.802 768 l 1,0,-1
EndSplineSet
EndChar

StartChar: l
Encoding: 108 108 79
Width: 189
GlyphClass: 2
Flags: W
LayerCount: 2
Fore
SplineSet
157.804 237.98 m 1,0,-1
 157.804 -20 l 1,1,-1
 51.4033 -20 l 1,2,-1
 51.4033 802 l 1,3,-1
 158.633 802 l 1,4,-1
 157.804 237.98 l 1,0,-1
EndSplineSet
EndChar

StartChar: m
Encoding: 109 109 80
Width: 669
GlyphClass: 2
Flags: W
LayerCount: 2
Fore
SplineSet
276.396 453 m 0,0,1
 307.446 453 307.446 453 329.484 442.096 c 0,2,3
 351.198 431.352 351.198 431.352 370.818 408.208 c 0,4,5
 374.733 404.676 374.733 404.676 376.944 404.157 c 0,6,7
 378.403 403.815 378.403 403.815 379.676 403.656 c 0,8,9
 381.94 405.371 381.94 405.371 384.904 408.101 c 0,10,11
 392.357 414.965 392.357 414.965 396.791 418.069 c 0,12,13
 415.531 434.312 415.531 434.312 439.215 442.948 c 1,14,15
 453.304 449.832 453.304 449.832 463.596 450.475 c 0,16,17
 472.229 451.014 472.229 451.014 483.41 449.999 c 0,18,19
 560.56 449.593 560.56 449.593 599.914 385.133 c 0,20,21
 637.995 322.761 637.995 322.761 637.995 223 c 2,22,-1
 637.995 69.5 l 2,23,24
 637.995 60.6797 637.995 60.6797 637.587 44.375 c 0,25,26
 637.195 28.6943 637.195 28.6943 637.195 1 c 2,27,-1
 637.195 -18.791 l 1,28,-1
 529.195 -20.2119 l 1,29,-1
 529.195 60.5 l 2,30,31
 529.195 89.1709 529.195 89.1709 529.597 123.294 c 0,32,33
 529.995 157.138 529.995 157.138 529.995 225 c 0,34,35
 529.995 258.355 529.995 258.355 520.833 281.688 c 0,36,37
 512.044 304.065 512.044 304.065 499.915 313.54 c 0,38,39
 487.807 323 487.807 323 473.596 323 c 0,40,41
 459.067 323 459.067 323 446.771 314.162 c 0,42,43
 434.713 305.495 434.713 305.495 426.074 285.497 c 0,44,45
 417.195 264.945 417.195 264.945 417.195 236 c 0,46,47
 417.195 230.714 417.195 230.714 416.396 -0.0869141 c 2,48,-1
 416.326 -20 l 1,49,-1
 314.795 -20 l 1,50,-1
 314.795 64 l 2,51,52
 314.795 95.1035 314.795 95.1035 315.197 130.782 c 0,53,54
 315.596 166.176 315.596 166.176 315.596 233 c 0,55,56
 315.596 267.201 315.596 267.201 306.137 290.426 c 0,57,58
 297.138 312.523 297.138 312.523 284.968 321.057 c 0,59,60
 272.37 329.891 272.37 329.891 257.529 329.504 c 0,61,62
 242.331 329.108 242.331 329.108 229.424 320.057 c 0,63,64
 216.888 311.267 216.888 311.267 207.888 291.577 c 0,65,66
 198.795 271.688 198.795 271.688 198.795 245 c 2,67,-1
 198.795 -20 l 1,68,-1
 94.833 -20 l 1,69,-1
 93.958 449 l 1,70,-1
 200.396 449 l 1,71,-1
 200.396 431.007 l 1,72,73
 210.68 437.637 210.68 437.637 229.397 444.657 c 0,74,75
 251.646 453 251.646 453 276.396 453 c 0,0,1
EndSplineSet
EndChar

StartChar: n
Encoding: 110 110 81
Width: 384
GlyphClass: 2
Flags: W
LayerCount: 2
Fore
SplineSet
383.096 229.955 m 2,0,-1
 382.226 -20 l 1,1,-1
 275.096 -20 l 1,2,-1
 275.096 65.5 l 2,3,4
 275.096 98.1514 275.096 98.1514 275.497 135.27 c 0,5,6
 275.896 172.117 275.896 172.117 275.896 239 c 0,7,8
 275.896 273.124 275.896 273.124 266.491 295.794 c 0,9,10
 257.569 317.302 257.569 317.302 245.53 325.377 c 0,11,12
 233.145 333.684 233.145 333.684 218.494 332.539 c 0,13,14
 203.155 331.341 203.155 331.341 189.68 321.314 c 0,15,16
 176.675 311.639 176.675 311.639 167.974 291.497 c 0,17,18
 159.096 270.945 159.096 270.945 159.096 244.082 c 2,19,-1
 160.827 -20 l 1,20,-1
 56.7324 -20 l 1,21,-1
 55.8584 449 l 1,22,-1
 162.295 449 l 1,23,-1
 162.295 429.131 l 1,24,25
 168.714 433.263 168.714 433.263 176.021 437.942 c 0,26,27
 194.697 449 194.697 449 242.295 449 c 0,28,29
 319.566 449 319.566 449 352.329 388.742 c 0,30,31
 383.096 332.153 383.096 332.153 383.096 229.955 c 2,0,-1
EndSplineSet
EndChar

StartChar: o
Encoding: 111 111 82
Width: 448
GlyphClass: 2
Flags: W
LayerCount: 2
Fore
SplineSet
247.646 342 m 0,0,1
 218.028 342 218.028 342 196.425 324.279 c 0,2,3
 174.572 306.353 174.572 306.353 164.897 280.913 c 0,4,5
 154.797 254.356 154.797 254.356 154.445 222.722 c 128,-1,6
 154.095 191.174 154.095 191.174 163.828 164.232 c 0,7,8
 173.101 138.569 173.101 138.569 194.374 121.263 c 128,-1,9
 215.595 104 215.595 104 245.247 104 c 0,10,11
 290.958 104 290.958 104 317.364 140.394 c 0,12,13
 335.063 165.071 335.063 165.071 339.881 199.906 c 0,14,15
 344.818 235.621 344.818 235.621 336.786 267.49 c 0,16,17
 329.125 297.883 329.125 297.883 305.617 320.028 c 0,18,19
 282.293 342 282.293 342 247.646 342 c 0,0,1
248.447 454 m 0,20,21
 310.576 454 310.576 454 356.032 419.033 c 128,-1,22
 401.642 383.948 401.642 383.948 422.076 330.642 c 0,23,24
 442.079 278.461 442.079 278.461 441.646 217.323 c 128,-1,25
 441.214 156.239 441.214 156.239 420.387 103.63 c 0,26,27
 399.115 49.8965 399.115 49.8965 352.717 14.8789 c 0,28,29
 306.502 -20 306.502 -20 245.247 -20 c 0,30,31
 183.19 -20 183.19 -20 136.978 14.8789 c 0,32,33
 90.4541 49.9902 90.4541 49.9902 69.9902 103.93 c 0,34,35
 49.9834 156.667 49.9834 156.667 50.8496 217.854 c 128,-1,36
 51.7148 278.975 51.7148 278.975 72.9961 331.092 c 0,37,38
 94.6699 384.172 94.6699 384.172 140.978 419.121 c 128,-1,39
 187.19 454 187.19 454 248.447 454 c 0,20,21
EndSplineSet
EndChar

StartChar: p
Encoding: 112 112 83
Width: 456
GlyphClass: 2
Flags: W
LayerCount: 2
Fore
SplineSet
441.099 206.663 m 0,0,1
 440.237 143.073 440.237 143.073 420.181 93.4775 c 0,2,3
 399.844 43.1904 399.844 43.1904 366.252 15.7568 c 0,4,5
 333.849 -10.707 333.849 -10.707 295.847 -21.5029 c 0,6,7
 257.331 -32.4443 257.331 -32.4443 217.597 -22.6201 c 0,8,9
 193.134 -16.5713 193.134 -16.5713 171.382 -3.6123 c 1,10,-1
 170.632 -221 l 1,11,-1
 66.7266 -221 l 1,12,-1
 65.876 447 l 1,13,-1
 172.301 447 l 1,14,-1
 172.301 429.649 l 1,15,16
 193.946 442.543 193.946 442.543 218.829 448.628 c 0,17,18
 259.102 458.477 259.102 458.477 298.141 446.416 c 0,19,20
 336.598 434.533 336.598 434.533 369.018 406.436 c 0,21,22
 402.559 377.366 402.559 377.366 422.389 324.489 c 0,23,24
 441.959 272.3 441.959 272.3 441.099 206.663 c 0,0,1
333.901 211 m 0,25,26
 333.901 250.321 333.901 250.321 319.488 279.49 c 0,27,28
 305.437 307.93 305.437 307.93 284.679 318.471 c 0,29,30
 262.093 329.94 262.093 329.94 238.943 329.502 c 0,31,32
 218.039 329.107 218.039 329.107 199.924 310.91 c 0,33,34
 182.014 292.92 182.014 292.92 174.385 260.812 c 1,35,36
 173.064 248.308 173.064 248.308 172.699 212.744 c 0,37,38
 172.335 177.246 172.335 177.246 174.268 164.664 c 1,39,40
 180.988 134.503 180.988 134.503 198.846 117.363 c 0,41,42
 217.041 99.8984 217.041 99.8984 238.539 99.498 c 0,43,44
 262.272 99.0547 262.272 99.0547 284.605 109.69 c 0,45,46
 305.056 119.428 305.056 119.428 319.42 146.154 c 0,47,48
 333.901 173.095 333.901 173.095 333.901 211 c 0,25,26
EndSplineSet
EndChar

StartChar: q
Encoding: 113 113 84
Width: 447
GlyphClass: 2
Flags: W
LayerCount: 2
Fore
SplineSet
60.8984 206.608 m 0,0,1
 60.0391 254.988 60.0391 254.988 70.8965 296.25 c 0,2,3
 81.8164 337.745 81.8164 337.745 100.871 367.101 c 0,4,5
 119.705 396.119 119.705 396.119 145.091 416.361 c 0,6,7
 170.614 436.714 170.614 436.714 199.298 444.988 c 0,8,9
 227.312 453.068 227.312 453.068 256.173 451.991 c 0,10,11
 285.266 450.905 285.266 450.905 312.698 437.833 c 0,12,13
 321.817 433.94 321.817 433.94 329.695 428.945 c 1,14,-1
 329.695 447 l 1,15,-1
 436.121 447 l 1,16,-1
 435.271 -221 l 1,17,-1
 331.364 -221 l 1,18,-1
 330.615 -3.6123 l 1,19,20
 308.863 -16.5713 308.863 -16.5713 284.4 -22.6201 c 0,21,22
 244.665 -32.4443 244.665 -32.4443 206.15 -21.5029 c 0,23,24
 168.149 -10.707 168.149 -10.707 135.744 15.7568 c 0,25,26
 102.152 43.1904 102.152 43.1904 81.8164 93.4775 c 0,27,28
 61.7598 143.073 61.7598 143.073 60.8984 206.608 c 0,0,1
168.096 211 m 0,29,30
 168.096 173.095 168.096 173.095 182.576 146.154 c 0,31,32
 196.942 119.428 196.942 119.428 217.392 109.69 c 0,33,34
 239.725 99.0547 239.725 99.0547 263.457 99.498 c 0,35,36
 284.956 99.8984 284.956 99.8984 303.15 117.363 c 0,37,38
 321.009 134.503 321.009 134.503 327.729 164.664 c 1,39,40
 329.661 177.246 329.661 177.246 329.297 212.744 c 0,41,42
 328.933 248.308 328.933 248.308 327.611 260.812 c 1,43,44
 319.982 292.92 319.982 292.92 302.073 310.91 c 0,45,46
 283.958 329.107 283.958 329.107 263.054 329.502 c 0,47,48
 239.904 329.94 239.904 329.94 217.318 318.471 c 0,49,50
 196.562 307.93 196.562 307.93 182.509 279.49 c 0,51,52
 168.096 250.322 168.096 250.322 168.096 211 c 0,29,30
EndSplineSet
EndChar

StartChar: r
Encoding: 114 114 85
Width: 309
GlyphClass: 2
Flags: W
LayerCount: 2
Fore
SplineSet
244.313 460 m 0,0,1
 271.047 460 271.047 460 296.651 445.14 c 2,2,-1
 310.862 436.893 l 1,3,-1
 270.479 321.911 l 1,4,-1
 257.643 325.476 l 2,5,6
 239.58 330.493 239.58 330.493 217.111 324.012 c 0,7,8
 196.111 317.955 196.111 317.955 182.453 300.409 c 1,9,10
 169.742 282.523 169.742 282.523 159.734 254.377 c 0,11,12
 149.914 226.756 149.914 226.756 149.914 203.952 c 2,13,-1
 149.035 -20 l 1,14,-1
 45.1514 -20 l 1,15,-1
 44.2764 449 l 1,16,-1
 150.901 449 l 1,17,-1
 150.615 418.293 l 1,18,19
 171.679 441.524 171.679 441.524 195.189 450.608 c 0,20,21
 219.496 460 219.496 460 244.313 460 c 0,0,1
EndSplineSet
EndChar

StartChar: s
Encoding: 115 115 86
Width: 374
GlyphClass: 2
Flags: W
LayerCount: 2
Fore
SplineSet
57.6533 78.6973 m 1,0,-1
 134.055 162.963 l 1,1,-1
 144.528 146.405 l 2,2,3
 167.628 109.887 167.628 109.887 208.378 103.844 c 0,4,5
 227.619 100.637 227.619 100.637 240.022 108.389 c 0,6,7
 251.202 115.376 251.202 115.376 253.796 124.022 c 0,8,9
 255.794 130.68 255.794 130.68 251.679 138.762 c 0,10,11
 246.493 148.95 246.493 148.95 230.681 154.806 c 0,12,13
 169.484 176.949 169.484 176.949 155.453 183.14 c 0,14,-1
 154.568 183.567 l 1,15,16
 118.926 202.327 118.926 202.327 103.054 239.603 c 0,17,18
 87.9775 275.009 87.9775 275.009 87.9775 314 c 0,19,20
 87.9775 335.481 87.9775 335.481 94.5186 358.257 c 0,21,22
 101.054 381.013 101.054 381.013 115.608 403.186 c 0,23,24
 131.117 426.812 131.117 426.812 161.51 441.203 c 0,25,26
 190.649 455 190.649 455 228.777 455 c 0,27,28
 302.721 455 302.721 455 339.431 407.966 c 2,29,-1
 349.097 395.581 l 1,30,-1
 289.479 298.245 l 1,31,-1
 276.63 316.984 l 2,32,33
 261.396 339.201 261.396 339.201 237.69 343.205 c 0,34,35
 229.637 344.754 229.637 344.754 219.726 342.755 c 0,36,37
 211.267 341.05 211.267 341.05 202.848 333.066 c 0,38,39
 197.577 328.068 197.577 328.068 197.577 318 c 0,40,41
 197.577 307.461 197.577 307.461 202.997 300.049 c 0,42,43
 208.418 292.637 208.418 292.637 223.146 286.413 c 1,44,-1
 260.689 277.427 l 1,45,-1
 261.567 277.083 l 2,46,47
 306.543 259.445 306.543 259.445 331.07 225.379 c 0,48,49
 356.497 190.065 356.497 190.065 357.961 150.422 c 0,50,51
 359.313 113.783 359.313 113.783 349.338 80.9072 c 0,52,53
 339.247 47.6543 339.247 47.6543 319.838 24.5479 c 0,54,55
 296.878 -3.00391 296.878 -3.00391 267.285 -12.8301 c 0,56,57
 239.849 -21.9395 239.849 -21.9395 203.599 -22.9932 c 0,58,59
 173.055 -24.1162 173.055 -24.1162 127.913 -1.00781 c 0,60,61
 80.4492 23.2891 80.4492 23.2891 63.3486 64.8525 c 2,62,-1
 57.6533 78.6973 l 1,0,-1
EndSplineSet
EndChar

StartChar: t
Encoding: 116 116 87
Width: 218
GlyphClass: 2
Flags: W
LayerCount: 2
Fore
SplineSet
173.9 442 m 1,0,-1
 212.3 442 l 1,1,-1
 212.3 318 l 1,2,-1
 173.1 318 l 1,3,-1
 173.1 -22 l 1,4,-1
 65.0996 -22 l 1,5,-1
 65.0996 320 l 1,6,-1
 30.7002 320 l 1,7,-1
 30.7002 442 l 1,8,-1
 67.5 442 l 1,9,-1
 67.5 534 l 1,10,-1
 173.9 534 l 1,11,-1
 173.9 442 l 1,0,-1
EndSplineSet
EndChar

StartChar: u
Encoding: 117 117 88
Width: 422
GlyphClass: 2
Flags: W
LayerCount: 2
Fore
SplineSet
62.0049 199 m 0,0,1
 62.0049 269.128 62.0049 269.128 62.4062 308.256 c 0,2,3
 62.8047 347.128 62.8047 347.128 62.8047 356.5 c 2,4,-1
 62.8047 449 l 1,5,-1
 170.005 449 l 1,6,-1
 170.005 190 l 2,7,8
 170.005 156.146 170.005 156.146 178.818 136.152 c 0,9,10
 186.728 118.21 186.728 118.21 197.502 113.282 c 0,11,12
 209.413 107.835 209.413 107.835 223.559 111.974 c 0,13,14
 238.933 116.471 238.933 116.471 252.561 129.766 c 128,-1,15
 266.207 143.08 266.207 143.08 275.801 166.206 c 0,16,17
 285.205 188.876 285.205 188.876 285.205 215.952 c 2,18,-1
 284.329 449 l 1,19,-1
 389.167 449 l 1,20,-1
 390.042 -20 l 1,21,-1
 284.097 -20 l 1,22,-1
 283.156 17.5986 l 1,23,24
 271.942 3.35059 271.942 3.35059 263.56 -1.88867 c 0,25,26
 234.581 -20 234.581 -20 203.604 -20 c 0,27,28
 125.533 -20 125.533 -20 92.7715 40.2578 c 0,29,30
 62.0049 96.8467 62.0049 96.8467 62.0049 199 c 0,0,1
EndSplineSet
EndChar

StartChar: v
Encoding: 118 118 89
Width: 420
GlyphClass: 2
Flags: W
LayerCount: 2
Fore
SplineSet
421.785 448.664 m 1,0,-1
 230.586 -86.7852 l 1,1,-1
 46.6299 446.686 l 1,2,-1
 158.179 448.138 l 1,3,-1
 232.311 230.156 l 1,4,-1
 314.297 450.141 l 1,5,-1
 421.785 448.664 l 1,0,-1
EndSplineSet
EndChar

StartChar: w
Encoding: 119 119 90
Width: 529
GlyphClass: 2
Flags: W
LayerCount: 2
Fore
SplineSet
375.533 227.1 m 1,0,-1
 440.421 450.153 l 1,1,-1
 547.971 448.692 l 1,2,-1
 393.251 -80.8545 l 1,3,-1
 309.446 123.474 l 1,4,-1
 219.911 -78.8008 l 1,5,-1
 63.8662 446.703 l 1,6,-1
 174.68 448.146 l 1,7,-1
 241.458 222.592 l 1,8,-1
 311.146 385.196 l 1,9,-1
 375.533 227.1 l 1,0,-1
EndSplineSet
EndChar

StartChar: x
Encoding: 120 120 91
Width: 442
GlyphClass: 2
Flags: W
LayerCount: 2
Fore
SplineSet
44.4971 -20 m 1,0,-1
 115.134 104.417 l 1,1,-1
 185.749 234.063 l 1,2,-1
 137.532 323.584 l 1,3,-1
 66.8867 446.678 l 1,4,-1
 202.868 448.094 l 1,5,-1
 249.327 351.649 l 1,6,-1
 300.487 448 l 1,7,-1
 423.768 448 l 1,8,-1
 343.215 296.963 l 1,9,-1
 310.635 235.028 l 1,10,-1
 446.218 -21.3535 l 1,11,-1
 322.916 -19.9004 l 1,12,-1
 248.464 117.895 l 1,13,-1
 229.819 82.3535 l 1,14,-1
 180.514 -20 l 1,15,-1
 44.4971 -20 l 1,0,-1
EndSplineSet
EndChar

StartChar: y
Encoding: 121 121 92
Width: 416
GlyphClass: 2
Flags: W
LayerCount: 2
Fore
SplineSet
175.713 75.5176 m 1,0,-1
 37.3721 446.676 l 1,1,-1
 149.194 448.132 l 1,2,-1
 234.082 226.023 l 1,3,-1
 326.246 450.135 l 1,4,-1
 434.197 448.652 l 1,5,-1
 173.966 -220 l 1,6,-1
 51.918 -220 l 1,7,-1
 175.713 75.5176 l 1,0,-1
EndSplineSet
EndChar

StartChar: z
Encoding: 122 122 93
Width: 400
GlyphClass: 2
Flags: W
LayerCount: 2
Fore
SplineSet
74.3584 325.903 m 1,0,-1
 74.3584 444 l 1,1,-1
 402.654 444 l 1,2,-1
 342.912 331.983 l 1,3,-1
 224.732 106 l 1,4,-1
 393.558 106 l 1,5,-1
 393.558 -20 l 1,6,-1
 36.9268 -20 l 1,7,-1
 225.627 326.817 l 1,8,-1
 74.3584 325.903 l 1,0,-1
EndSplineSet
EndChar

StartChar: braceleft
Encoding: 123 123 94
Width: 236
GlyphClass: 2
Flags: W
LayerCount: 2
Fore
SplineSet
113.664 320.989 m 1,0,1
 120.604 313.268 120.604 313.268 125.167 303.899 c 0,2,3
 131.668 290.549 131.668 290.549 136.631 272.502 c 0,4,5
 141.56 254.577 141.56 254.577 143.369 237.059 c 0,6,7
 145.037 220.89 145.037 220.89 145.87 203.711 c 0,8,9
 146.7 186.607 146.7 186.607 146.7 174.5 c 2,10,-1
 146.7 152.892 l 1,11,-1
 146.603 151.791 l 2,12,13
 146.135 146.54 146.135 146.54 145.948 144.077 c 0,14,15
 152.299 51.793 152.299 51.793 214.113 -8.20312 c 2,16,-1
 220.3 -14.208 l 1,17,-1
 220.3 -167.991 l 1,18,-1
 197.293 -153.98 l 2,19,20
 131.175 -113.715 131.175 -113.715 88.4004 -37.4844 c 0,21,22
 45.543 38.8955 45.543 38.8955 37.9629 145.225 c 2,23,-1
 37.9004 146.111 l 1,24,-1
 37.9004 147 l 2,25,26
 37.9004 148.588 37.9004 148.588 38.3271 157.674 c 0,27,28
 38.7207 166.022 38.7207 166.022 39.1152 177.369 c 0,29,30
 39.4785 187.81 39.4785 187.81 38.7314 202.752 c 0,31,32
 37.9824 217.726 37.9824 217.726 36.1182 231.712 c 0,33,34
 34.3115 245.26 34.3115 245.26 30.6729 259.36 c 0,35,36
 27.3809 272.115 27.3809 272.115 22.6807 280.733 c 0,37,38
 18.5723 288.265 18.5723 288.265 11.8203 293.54 c 0,39,40
 6.11133 298 6.11133 298 -2.09961 298 c 1,41,-1
 -2.09961 338 l 1,42,43
 12.7568 338 12.7568 338 21.3154 356.154 c 0,44,45
 32.6855 380.272 32.6855 380.272 34.7637 409.284 c 0,46,47
 37.0996 441.893 37.0996 441.893 37.0996 471.5 c 0,48,49
 37.0996 500.041 37.0996 500.041 38.0781 505.776 c 0,50,51
 44.5703 609.374 44.5703 609.374 87.4004 682.332 c 0,52,53
 130.746 756.168 130.746 756.168 198.688 793.323 c 2,54,-1
 221.1 805.58 l 1,55,-1
 221.1 661.679 l 1,56,-1
 214.37 655.699 l 2,57,58
 154.105 602.148 154.105 602.148 145.09 503.758 c 0,59,60
 145.033 498.867 145.033 498.867 144.697 473.667 c 0,61,62
 144.288 442.936 144.288 442.936 141.836 408.716 c 0,63,64
 139.12 370.808 139.12 370.808 124.147 338.479 c 0,65,66
 119.731 328.946 119.731 328.946 113.664 320.989 c 1,0,1
129.9 144 m 1
EndSplineSet
EndChar

StartChar: bar
Encoding: 124 124 95
Width: 186
GlyphClass: 2
Flags: W
LayerCount: 2
Fore
SplineSet
157.5 237.938 m 1,0,-1
 155.767 -20 l 1,1,-1
 49.5 -20 l 1,2,-1
 49.5 717 l 1,3,-1
 156.665 717 l 1,4,-1
 157.5 237.938 l 1,0,-1
EndSplineSet
EndChar

StartChar: braceright
Encoding: 125 125 96
Width: 232
GlyphClass: 2
Flags: W
LayerCount: 2
Fore
SplineSet
201.1 338 m 1,0,-1
 201.1 298 l 1,1,2
 192.889 298 192.889 298 187.18 293.54 c 0,3,4
 180.428 288.265 180.428 288.265 176.32 280.733 c 0,5,6
 171.486 271.872 171.486 271.872 167.779 258.812 c 0,7,8
 163.938 245.283 163.938 245.283 162.56 232.357 c 0,9,10
 161.033 218.051 161.033 218.051 160.269 202.752 c 0,11,12
 159.521 187.81 159.521 187.81 159.885 177.369 c 0,13,14
 160.28 166.022 160.28 166.022 160.672 157.674 c 0,15,16
 161.1 148.587 161.1 148.587 161.1 147 c 2,17,-1
 161.1 146.111 l 1,18,-1
 161.037 145.225 l 2,19,20
 153.457 38.8955 153.457 38.8955 110.6 -37.4844 c 0,21,22
 67.8252 -113.716 67.8252 -113.716 1.70703 -153.98 c 2,23,-1
 -21.2998 -167.991 l 1,24,-1
 -21.2998 -14.208 l 1,25,-1
 -15.1123 -8.20312 l 2,26,27
 47.002 52.085 47.002 52.085 53.0996 144.798 c 1,28,-1
 53.0996 152.902 l 1,29,30
 52.2998 163.179 52.2998 163.179 52.2998 174.5 c 0,31,32
 52.2998 186.605 52.2998 186.605 53.1289 203.71 c 0,33,34
 53.9619 220.887 53.9619 220.887 55.6318 237.059 c 0,35,36
 57.4111 254.296 57.4111 254.296 61.8281 271.966 c 0,37,38
 66.4883 290.607 66.4883 290.607 73.6982 304.425 c 0,39,40
 78.2949 313.237 78.2949 313.237 85.1924 320.906 c 1,41,42
 79.084 328.772 79.084 328.772 74.5586 338.254 c 0,43,44
 59.0254 370.807 59.0254 370.807 56.7441 409.012 c 0,45,46
 54.71 443.088 54.71 443.088 54.3018 473.667 c 0,47,48
 53.9658 498.869 53.9658 498.869 53.9102 503.757 c 0,49,50
 44.8955 602.146 44.8955 602.146 -15.3701 655.699 c 2,51,-1
 -22.0996 661.679 l 1,52,-1
 -22.0996 805.58 l 1,53,-1
 0.313477 793.323 l 2,54,55
 68.2539 756.168 68.2539 756.168 111.6 682.332 c 0,56,57
 155.135 608.174 155.135 608.174 161.06 503.411 c 0,58,-1
 161.1 502.166 l 2,59,60
 161.147 499.625 161.147 499.625 161.9 472.345 c 0,61,62
 161.9 441.891 161.9 441.891 164.236 409.284 c 0,63,64
 166.315 380.272 166.315 380.272 177.685 356.154 c 0,65,66
 186.242 338 186.242 338 201.1 338 c 1,0,-1
69.0996 144 m 1
EndSplineSet
EndChar

StartChar: asciitilde
Encoding: 126 126 97
Width: 449
GlyphClass: 2
Flags: W
LayerCount: 2
Fore
SplineSet
292.312 567.944 m 2,0,1
 294 563.722 294 563.722 296.505 563.386 c 0,2,3
 298.08 563.175 298.08 563.175 299.014 563.555 c 128,-1,4
 299.976 563.947 299.976 563.947 301.052 565.516 c 0,5,6
 301.092 566.366 301.092 566.366 300.804 567.211 c 2,7,-1
 286.33 585.304 l 1,8,-1
 363.6 628.999 l 1,9,-1
 363.6 600.832 l 1,10,11
 371.942 572.447 371.942 572.447 367.165 547.368 c 0,12,13
 361.666 518.5 361.666 518.5 341.814 502.646 c 0,14,15
 330.93 493.953 330.93 493.953 319.019 488.882 c 0,16,17
 312.387 486.058 312.387 486.058 305.464 484.37 c 0,18,19
 284.072 479.153 284.072 479.153 263.435 490.762 c 0,20,21
 242.079 502.774 242.079 502.774 231.555 530.401 c 2,22,-1
 224.807 548.115 l 1,23,-1
 285.155 585.833 l 1,24,-1
 292.312 567.944 l 2,0,1
231.688 530.056 m 2,25,26
 230 534.279 230 534.279 227.495 534.614 c 0,27,28
 225.92 534.825 225.92 534.825 224.986 534.445 c 128,-1,29
 224.024 534.053 224.024 534.053 222.948 532.484 c 0,30,31
 222.908 531.634 222.908 531.634 223.196 530.789 c 2,32,-1
 237.67 512.696 l 1,33,-1
 160.4 469.001 l 1,34,-1
 160.4 497.168 l 1,35,36
 152.058 525.552 152.058 525.552 156.835 550.632 c 0,37,38
 162.334 579.5 162.334 579.5 182.186 595.354 c 0,39,40
 193.069 604.046 193.069 604.046 204.981 609.118 c 0,41,42
 211.61 611.94 211.61 611.94 218.536 613.63 c 0,43,44
 239.927 618.847 239.927 618.847 260.565 607.238 c 0,45,46
 281.92 595.227 281.92 595.227 292.445 567.599 c 2,47,-1
 299.193 549.885 l 1,48,-1
 238.845 512.167 l 1,49,-1
 231.688 530.056 l 2,25,26
EndSplineSet
EndChar

StartChar: exclamdown
Encoding: 161 161 98
Width: 212
GlyphClass: 2
Flags: W
LayerCount: 2
Fore
SplineSet
65.8164 -19 m 1,0,-1
 60.5811 462 l 1,1,-1
 165.42 462 l 1,2,-1
 169.782 -19 l 1,3,-1
 65.8164 -19 l 1,0,-1
49.5996 634 m 0,4,5
 49.5996 670.981 49.5996 670.981 69.3701 692.948 c 0,6,7
 88.3164 714 88.3164 714 112 714 c 0,8,9
 135.824 714 135.824 714 154.812 692.243 c 0,10,11
 174.4 669.798 174.4 669.798 174.4 632 c 0,12,13
 174.4 595.633 174.4 595.633 154.243 574.636 c 0,14,15
 135.235 554.835 135.235 554.835 111.637 555.505 c 0,16,17
 88.3047 556.168 88.3047 556.168 69.5596 576.345 c 0,18,19
 49.5996 597.829 49.5996 597.829 49.5996 634 c 0,4,5
EndSplineSet
EndChar

StartChar: yen
Encoding: 165 165 99
Width: 543
GlyphClass: 2
Flags: W
LayerCount: 2
Fore
SplineSet
83.1309 220 m 1,0,-1
 515.939 220 l 1,1,-1
 513.611 92 l 1,2,-1
 80.8037 92 l 1,3,-1
 83.1309 220 l 1,0,-1
80.0029 400 m 1,4,-1
 512.812 400 l 1,5,-1
 515.139 272 l 1,6,-1
 82.3301 272 l 1,7,-1
 80.0029 400 l 1,4,-1
43.3662 712 m 1,8,-1
 166.551 712 l 1,9,-1
 303.422 454.427 l 1,10,-1
 437.285 712 l 1,11,-1
 560.344 712 l 1,12,-1
 359.571 328.043 l 1,13,-1
 359.571 -16.4424 l 1,14,-1
 242.418 -20.5869 l 1,15,-1
 248.293 325.627 l 1,16,-1
 43.3662 712 l 1,8,-1
EndSplineSet
EndChar

StartChar: dieresis
Encoding: 168 168 100
Width: 638
GlyphClass: 2
Flags: W
LayerCount: 2
Fore
SplineSet
180.4 805 m 0,0,1
 180.4 840.981 180.4 840.981 200.17 862.948 c 0,2,3
 219.117 884 219.117 884 242.8 884 c 0,4,5
 266.193 884 266.193 884 285.043 864.364 c 0,6,7
 305.2 843.367 305.2 843.367 305.2 807 c 0,8,9
 305.2 769.202 305.2 769.202 285.611 746.757 c 0,10,11
 266.624 725 266.624 725 242.8 725 c 128,-1,12
 219.117 725 219.117 725 200.17 746.052 c 0,13,14
 180.4 768.019 180.4 768.019 180.4 805 c 0,0,1
378.8 800 m 0,15,16
 378.8 835.981 378.8 835.981 398.57 857.948 c 0,17,18
 417.517 879 417.517 879 441.2 879 c 0,19,20
 464.593 879 464.593 879 483.443 859.364 c 0,21,22
 503.6 838.368 503.6 838.368 503.6 802 c 0,23,24
 503.6 764.201 503.6 764.201 484.011 741.757 c 0,25,26
 465.023 720 465.023 720 441.2 720 c 128,-1,27
 417.517 720 417.517 720 398.57 741.052 c 0,28,29
 378.8 763.019 378.8 763.019 378.8 800 c 0,15,16
EndSplineSet
EndChar

StartChar: guillemotleft
Encoding: 171 171 101
Width: 530
GlyphClass: 2
Flags: W
LayerCount: 2
Fore
SplineSet
417.585 465.934 m 1,0,-1
 417.585 330.41 l 1,1,-1
 366.629 287.129 l 1,2,-1
 417.498 239.031 l 1,3,-1
 418.738 97.9873 l 1,4,-1
 211.606 289.634 l 1,5,-1
 417.585 465.934 l 1,0,-1
251.985 467.676 m 1,6,-1
 251.985 333.521 l 1,7,-1
 201.023 289.42 l 1,8,-1
 251.898 242.133 l 1,9,-1
 253.134 99.9492 l 1,10,-1
 45.1143 292.748 l 1,11,-1
 251.985 467.676 l 1,6,-1
EndSplineSet
EndChar

StartChar: degree
Encoding: 176 176 102
Width: 504
GlyphClass: 2
Flags: W
LayerCount: 2
Fore
SplineSet
276.8 802 m 0,0,1
 276.8 797.912 276.8 797.912 278.021 797.086 c 0,2,3
 280.152 795.642 280.152 795.642 282.618 797.244 c 0,4,5
 284 798.142 284 798.142 284 803 c 0,6,7
 284 805.858 284 805.858 282.618 806.756 c 0,8,9
 280.444 808.169 280.444 808.169 278.462 806.724 c 0,10,11
 276.8 805.513 276.8 805.513 276.8 802 c 0,0,1
208 801 m 0,12,13
 208 842.648 208 842.648 231.64 866.152 c 0,14,15
 254.161 888.544 254.161 888.544 281.228 885.941 c 0,16,17
 307.042 883.458 307.042 883.458 328.532 861.479 c 0,18,19
 352 837.477 352 837.477 352 799 c 0,20,21
 352 758.688 352 758.688 328.697 734.193 c 0,22,23
 306.899 711.279 306.899 711.279 280.615 710.015 c 0,24,25
 253.515 708.711 253.515 708.711 231.143 732.864 c 0,26,27
 208 757.847 208 757.847 208 801 c 0,12,13
EndSplineSet
EndChar

StartChar: plusminus
Encoding: 177 177 103
Width: 445
GlyphClass: 2
Flags: W
LayerCount: 2
Fore
SplineSet
419.2 107 m 1,0,-1
 76.7998 107 l 1,1,-1
 76.7998 236.949 l 1,2,-1
 419.2 238.052 l 1,3,-1
 419.2 107 l 1,0,-1
408.8 454.147 m 1,4,-1
 300.103 453.147 l 1,5,-1
 300.903 298 l 1,6,-1
 196 298 l 1,7,-1
 196 452.858 l 1,8,-1
 83.2002 451.858 l 1,9,-1
 83.2002 582.14 l 1,10,-1
 197.266 581.143 l 1,11,-1
 194.868 727 l 1,12,-1
 299.2 727 l 1,13,-1
 299.2 583.146 l 1,14,-1
 408.8 584.146 l 1,15,-1
 408.8 454.147 l 1,4,-1
EndSplineSet
EndChar

StartChar: uni00B2
Encoding: 178 178 104
Width: 372
GlyphClass: 2
Flags: W
LayerCount: 2
Fore
SplineSet
139.39 505 m 1,0,-1
 280.362 734.544 l 1,1,2
 297.422 767.765 297.422 767.765 294.447 790.815 c 0,3,4
 293.197 800.505 293.197 800.505 289.126 805.595 c 0,5,6
 285.054 810.686 285.054 810.686 275.379 813.532 c 0,7,8
 266.833 816.045 266.833 816.045 254.422 809.551 c 0,9,10
 243.925 804.059 243.925 804.059 240.622 791.675 c 2,11,-1
 234.12 767.291 l 1,12,-1
 173.767 815.651 l 1,13,-1
 179.778 831.548 l 2,14,15
 205.048 898.366 205.048 898.366 271.433 895.994 c 0,16,17
 318.077 894.827 318.077 894.827 342.682 862.224 c 0,18,19
 367.854 828.869 367.854 828.869 362.521 775.519 c 0,20,21
 357.617 726.495 357.617 726.495 327.161 673.197 c 1,22,-1
 277.563 590.294 l 1,23,-1
 371.043 591.146 l 1,24,-1
 371.043 505 l 1,25,-1
 139.39 505 l 1,0,-1
EndSplineSet
EndChar

StartChar: uni00B3
Encoding: 179 179 105
Width: 355
GlyphClass: 2
Flags: W
LayerCount: 2
Fore
SplineSet
263.339 749.954 m 1,0,1
 272.489 752.67 272.489 752.67 277.58 767.422 c 0,2,3
 283.432 784.378 283.432 784.378 277.96 798.056 c 0,4,5
 273.366 809.542 273.366 809.542 259.286 813.452 c 0,6,7
 251.555 815.487 251.555 815.487 243.046 814.403 c 0,8,9
 238.808 813.862 238.808 813.862 234.377 812.544 c 0,10,11
 224.435 809.585 224.435 809.585 219.857 799.287 c 2,12,-1
 211.638 780.792 l 1,13,-1
 152.543 827.446 l 1,14,-1
 162.492 844.696 l 2,15,16
 186.536 886.383 186.536 886.383 234.051 892.904 c 0,17,18
 245.154 894.427 245.154 894.427 257.296 894 c 0,19,20
 287.39 894 287.39 894 310.551 875.301 c 0,21,22
 333.894 856.456 333.894 856.456 343.411 828.279 c 0,23,24
 352.855 800.32 352.855 800.32 348.022 766.484 c 0,25,26
 344.473 741.64 344.473 741.64 331.791 719.438 c 1,27,28
 352.332 687.667 352.332 687.667 357.944 653.526 c 0,29,30
 365.058 610.245 365.058 610.245 351.383 576.056 c 0,31,32
 338.222 543.154 338.222 543.154 310.936 521.186 c 0,33,34
 283.765 499.311 283.765 499.311 249.339 498.998 c 1,35,36
 201.772 497.088 201.772 497.088 155.998 527.316 c 2,37,-1
 138.334 538.98 l 1,38,-1
 182.251 603.342 l 1,39,-1
 193.17 597.276 l 2,40,41
 206.414 589.918 206.414 589.918 217.193 586.325 c 0,42,43
 227.167 583 227.167 583 233.071 583 c 2,44,-1
 250.671 583 l 2,45,46
 271.038 583 271.038 583 281.072 601.305 c 0,47,48
 291.68 620.655 291.68 620.655 286.841 642.711 c 0,49,50
 282.589 662.095 282.589 662.095 266.149 670.075 c 1,51,-1
 216.678 671.419 l 1,52,-1
 215.055 748.517 l 1,53,-1
 263.339 749.954 l 1,0,1
EndSplineSet
EndChar

StartChar: acute
Encoding: 180 180 106
Width: 877
GlyphClass: 2
Flags: W
LayerCount: 2
Fore
SplineSet
416.905 1014.89 m 1,0,-1
 488.712 909.211 l 1,1,-1
 343.355 764.572 l 1,2,-1
 281.531 837.215 l 1,3,-1
 416.905 1014.89 l 1,0,-1
EndSplineSet
EndChar

StartChar: uni00B9
Encoding: 185 185 107
Width: 261
GlyphClass: 2
Flags: W
LayerCount: 2
Fore
SplineSet
157.777 751.229 m 1,0,-1
 114.84 799.704 l 1,1,-1
 180.685 877.096 l 1,2,-1
 227.36 940.108 l 1,3,-1
 228.849 832.172 l 1,4,-1
 228.849 589 l 1,5,-1
 229.648 589 l 1,6,-1
 229.648 510 l 1,7,-1
 158.449 510 l 1,8,-1
 158.449 568.954 l 1,9,-1
 157.777 751.229 l 1,0,-1
EndSplineSet
EndChar

StartChar: guillemotright
Encoding: 187 187 108
Width: 533
GlyphClass: 2
Flags: W
LayerCount: 2
Fore
SplineSet
60.415 465.934 m 1,0,-1
 266.394 289.634 l 1,1,-1
 59.2617 97.9873 l 1,2,-1
 60.502 239.031 l 1,3,-1
 111.371 287.129 l 1,4,-1
 60.415 330.41 l 1,5,-1
 60.415 465.934 l 1,0,-1
226.015 467.676 m 1,6,-1
 432.886 292.748 l 1,7,-1
 224.865 99.9492 l 1,8,-1
 226.102 242.132 l 1,9,-1
 276.977 289.42 l 1,10,-1
 226.015 333.521 l 1,11,-1
 226.015 467.676 l 1,6,-1
EndSplineSet
EndChar

StartChar: questiondown
Encoding: 191 191 109
Width: 493
GlyphClass: 2
Flags: W
LayerCount: 2
Fore
SplineSet
295.277 97 m 0,0,1
 316.771 97 316.771 97 331.334 104.861 c 0,2,3
 345.375 112.44 345.375 112.44 352.113 122.695 c 0,4,5
 361.644 137.197 361.644 137.197 374.005 153.679 c 2,6,-1
 388.4 172.873 l 1,7,-1
 439.096 68.7666 l 1,8,-1
 431.235 57.7129 l 2,9,10
 403.305 18.4346 403.305 18.4346 368.09 -0.823242 c 0,11,12
 333.023 -20 333.023 -20 284.877 -20 c 0,13,14
 207.277 -20 207.277 -20 160.643 35.5176 c 0,15,16
 113.678 91.4287 113.678 91.4287 113.678 182 c 0,17,18
 113.678 227.781 113.678 227.781 129.807 267.545 c 0,19,20
 145.314 305.777 145.314 305.777 179.766 349.89 c 2,21,-1
 213.217 393.696 l 2,22,23
 240.306 430.302 240.306 430.302 244.426 446.545 c 0,24,25
 248.877 464.094 248.877 464.094 248.877 513 c 2,26,-1
 248.877 514.172 l 1,27,-1
 252.165 549.104 l 1,28,-1
 360.596 556.091 l 1,29,-1
 359.277 501.697 l 1,30,31
 359.277 439.407 359.277 439.407 344.874 402.275 c 0,32,33
 330.943 366.358 330.943 366.358 298.853 325.191 c 1,34,-1
 264.703 279.526 l 2,35,36
 257.811 269.834 257.811 269.834 249.907 261.052 c 0,37,38
 243.865 254.339 243.865 254.339 238.404 245.379 c 0,39,40
 232.367 235.474 232.367 235.474 227.492 226.1 c 0,41,42
 223.351 218.136 223.351 218.136 220.789 208.93 c 0,43,44
 218.704 201.435 218.704 201.435 219.222 193.661 c 2,45,-1
 219.26 193.092 l 1,46,47
 220.33 141.805 220.33 141.805 238.255 119.403 c 0,48,49
 256.179 97 256.179 97 295.277 97 c 0,0,1
367.277 690 m 0,50,51
 367.277 653.829 367.277 653.829 347.317 632.345 c 0,52,53
 328.572 612.167 328.572 612.167 305.24 611.505 c 0,54,55
 281.643 610.835 281.643 610.835 262.634 630.636 c 0,56,57
 242.478 651.633 242.478 651.633 242.478 688 c 0,58,59
 242.478 725.798 242.478 725.798 262.066 748.243 c 0,60,61
 281.054 770 281.054 770 304.877 770 c 0,62,63
 328.561 770 328.561 770 347.507 748.948 c 0,64,65
 367.277 726.981 367.277 726.981 367.277 690 c 0,50,51
EndSplineSet
EndChar

StartChar: Odieresis
Encoding: 214 214 127
Width: 724
GlyphClass: 2
Flags: W
LayerCount: 2
Fore
SplineSet
393.651 -3 m 1
EndSplineSet
Refer: 50 79 N 1 0 0 1 0 0 2
Refer: 100 168 S 1 0 0 1 20.8 0 2
EndChar

StartChar: multiply
Encoding: 215 215 128
Width: 445
GlyphClass: 2
Flags: W
LayerCount: 2
Fore
SplineSet
396.341 457.073 m 1,0,-1
 319.592 360.138 l 1,1,-1
 407.65 251.065 l 1,2,-1
 333.822 158.78 l 1,3,-1
 245.938 267.638 l 1,4,-1
 167.486 167.572 l 1,5,-1
 93.5439 260 l 1,6,-1
 174.065 360.651 l 1,7,-1
 90.0645 460.651 l 1,8,-1
 164.172 553.284 l 1,9,-1
 245.654 451.431 l 1,10,-1
 322.454 549.431 l 1,11,-1
 396.341 457.073 l 1,0,-1
EndSplineSet
EndChar

StartChar: germandbls
Encoding: 223 223 130
Width: 465
GlyphClass: 2
Flags: W
LayerCount: 2
Fore
SplineSet
172.169 424 m 1,0,-1
 186.818 424 l 2,1,2
 197.594 424 197.594 424 219.978 425.472 c 0,3,4
 240.015 426.79 240.015 426.79 244.729 426.972 c 0,5,6
 267.846 431.452 267.846 431.452 282.029 448.797 c 0,7,8
 296.501 466.493 296.501 466.493 298.963 489.188 c 0,9,10
 301.723 514.629 301.723 514.629 296.194 539.681 c 0,11,12
 291.218 562.229 291.218 562.229 274.663 578.148 c 0,13,14
 257.987 594.182 257.987 594.182 233.586 595.007 c 2,15,-1
 218.019 595.533 l 2,16,17
 218.019 596 218.019 596 172.393 596 c 1,18,-1
 172.169 424 l 1,0,-1
171.768 115 m 1,19,-1
 278.818 115 l 2,20,21
 303.581 115 303.581 115 318.938 133.428 c 0,22,23
 334.776 152.435 334.776 152.435 337.321 180.271 c 0,24,25
 340.195 211.702 340.195 211.702 334.083 242.716 c 0,26,27
 328.43 271.397 328.43 271.397 310.348 292.325 c 0,28,29
 293.166 312.211 293.166 312.211 269.586 313.007 c 2,30,-1
 254.019 313.533 l 2,31,32
 254.019 314 254.019 314 186.818 314 c 2,33,-1
 172.026 313.996 l 1,34,-1
 171.768 115 l 1,19,-1
261.217 -20 m 1,35,-1
 110.019 -20 l 2,36,37
 110.019 -19.4121 110.019 -19.4121 87.1445 -19.9961 c 2,38,-1
 70.8184 -20.4121 l 1,39,-1
 70.8184 708 l 1,40,-1
 251.662 708 l 1,41,-1
 254.001 706.052 l 1,42,43
 291.015 705.716 291.015 705.716 321.014 687.487 c 0,44,45
 353.385 667.817 353.385 667.817 372.128 635.815 c 0,46,47
 390.43 604.566 390.43 604.566 397.979 565.157 c 0,48,49
 405.533 525.712 405.533 525.712 400.601 488.712 c 0,50,51
 395.567 450.96 395.567 450.96 376.071 418.089 c 0,52,53
 367.937 404.373 367.937 404.373 357.44 393.097 c 1,54,55
 376.527 383.753 376.527 383.753 392.192 366.51 c 0,56,57
 422.21 333.467 422.21 333.467 435.18 285.391 c 0,58,59
 447.805 238.589 447.805 238.589 444.778 185.089 c 0,60,61
 441.748 131.521 441.748 131.521 423.061 85.8867 c 0,62,63
 403.737 38.7012 403.737 38.7012 362.917 8.75195 c 0,64,65
 322.833 -20.6582 322.833 -20.6582 268.966 -19.0312 c 1,66,-1
 261.217 -20 l 1,35,-1
EndSplineSet
EndChar

StartChar: dotlessi
Encoding: 305 305 165
Width: 186
GlyphClass: 2
Flags: W
LayerCount: 2
Fore
SplineSet
52.1172 453 m 1,0,-1
 157.791 453 l 1,1,-1
 157.791 -22 l 1,2,-1
 53.8643 -22 l 1,3,-1
 52.1172 453 l 1,0,-1
EndSplineSet
EndChar

StartChar: jcircumflex
Encoding: 309 309 167
Width: 186
GlyphClass: 2
Flags: W
LayerCount: 2
Fore
SplineSet
52.4775 450 m 1,0,-1
 158.108 450 l 1,1,-1
 157.247 -122 l 1,2,-1
 52.4775 -122 l 1,3,-1
 52.4775 450 l 1,0,-1
EndSplineSet
Refer: 65 94 S 1 0 0 1 -156 -35 2
EndChar

StartChar: uni030A
Encoding: 778 778 174
Width: 138
GlyphClass: 2
Flags: W
LayerCount: 2
Fore
SplineSet
72.7998 791 m 0,0,1
 72.7998 786.912 72.7998 786.912 74.0205 786.086 c 0,2,3
 75.8711 784.833 75.8711 784.833 78.1826 786.45 c 0,4,5
 80 787.722 80 787.722 80 792 c 0,6,7
 80 794.858 80 794.858 78.6182 795.756 c 0,8,9
 76.1533 797.358 76.1533 797.358 74.0205 795.914 c 0,10,11
 72.7998 795.088 72.7998 795.088 72.7998 791 c 0,0,1
4 790 m 0,12,13
 4 832.821 4 832.821 27.8164 855.826 c 0,14,15
 50.2891 877.532 50.2891 877.532 77.2275 874.941 c 0,16,17
 103.041 872.458 103.041 872.458 124.532 850.479 c 0,18,19
 148 826.477 148 826.477 148 788 c 0,20,21
 148 747.688 148 747.688 124.697 723.193 c 0,22,23
 102.767 700.14 102.767 700.14 76.3076 699.504 c 0,24,25
 49.5 698.859 49.5 698.859 27.3027 722.193 c 0,26,27
 4 746.688 4 746.688 4 790 c 0,12,13
EndSplineSet
EndChar

StartChar: Delta
Encoding: 916 916 175
Width: 606
GlyphClass: 2
Flags: W
LayerCount: 2
Fore
SplineSet
329.857 782.365 m 1,0,-1
 378.076 647.118 l 1,1,-1
 614.454 -19 l 1,2,-1
 513.946 -19 l 1,3,-1
 445.146 -20 l 1,4,-1
 224.955 -20 l 1,5,-1
 160.155 -19 l 1,6,-1
 60.0811 -19 l 1,7,-1
 291.86 663.622 l 1,8,-1
 329.857 782.365 l 1,0,-1
462.677 102 m 1,9,-1
 332.291 463.068 l 1,10,-1
 215.947 102 l 1,11,-1
 462.677 102 l 1,9,-1
EndSplineSet
EndChar

StartChar: beta
Encoding: 946 946 176
Width: 465
GlyphClass: 2
Flags: W
LayerCount: 2
Fore
SplineSet
172.209 424 m 1,0,-1
 186.818 424 l 2,1,2
 197.594 424 197.594 424 219.978 425.472 c 0,3,4
 240.015 426.79 240.015 426.79 244.729 426.972 c 0,5,6
 267.846 431.452 267.846 431.452 282.029 448.797 c 0,7,8
 296.501 466.493 296.501 466.493 298.963 489.188 c 0,9,10
 301.723 514.629 301.723 514.629 296.194 539.681 c 0,11,12
 291.218 562.229 291.218 562.229 274.663 578.148 c 0,13,14
 257.987 594.182 257.987 594.182 233.586 595.007 c 2,15,-1
 218.019 595.533 l 2,16,17
 218.019 596 218.019 596 172.396 596 c 1,18,-1
 172.209 424 l 1,0,-1
171.873 115 m 1,19,-1
 278.818 115 l 2,20,21
 303.581 115 303.581 115 318.938 133.428 c 0,22,23
 334.776 152.435 334.776 152.435 337.321 180.271 c 0,24,25
 340.195 211.702 340.195 211.702 334.083 242.716 c 0,26,27
 328.43 271.397 328.43 271.397 310.348 292.325 c 0,28,29
 293.166 312.211 293.166 312.211 269.586 313.007 c 2,30,-1
 254.019 313.533 l 2,31,32
 254.019 314 254.019 314 186.818 314 c 2,33,-1
 172.09 313.995 l 1,34,-1
 171.873 115 l 1,19,-1
171.727 -20.0049 m 1,35,-1
 171.597 -140 l 1,36,-1
 110.019 -140 l 2,37,38
 110.019 -139.412 110.019 -139.412 87.1445 -139.996 c 2,39,-1
 70.8184 -140.412 l 1,40,-1
 70.8184 708 l 1,41,-1
 251.662 708 l 1,42,-1
 254.001 706.052 l 1,43,44
 291.015 705.716 291.015 705.716 321.014 687.487 c 0,45,46
 353.385 667.817 353.385 667.817 372.128 635.815 c 0,47,48
 390.43 604.566 390.43 604.566 397.979 565.157 c 0,49,50
 405.533 525.712 405.533 525.712 400.601 488.712 c 0,51,52
 395.567 450.96 395.567 450.96 376.071 418.089 c 0,53,54
 367.937 404.373 367.937 404.373 357.44 393.097 c 1,55,56
 376.527 383.753 376.527 383.753 392.192 366.51 c 0,57,58
 422.21 333.467 422.21 333.467 435.18 285.391 c 0,59,60
 447.805 238.589 447.805 238.589 444.778 185.089 c 0,61,62
 441.748 131.521 441.748 131.521 423.061 85.8867 c 0,63,64
 403.737 38.7012 403.737 38.7012 362.917 8.75195 c 0,65,66
 322.833 -20.6582 322.833 -20.6582 268.966 -19.0312 c 1,67,-1
 261.217 -20 l 1,68,-1
 171.727 -20.0049 l 1,35,-1
EndSplineSet
EndChar

StartChar: quoteleft
Encoding: 8216 8216 177
Width: 167
GlyphClass: 2
Flags: W
LayerCount: 2
Fore
SplineSet
135.901 621.494 m 1,0,1
 138.455 593.797 138.455 593.797 124.416 573.441 c 0,2,3
 111.269 554.378 111.269 554.378 93.8301 548.247 c 0,4,5
 73.1191 540.966 73.1191 540.966 54.7021 559.383 c 0,6,7
 37.4717 576.613 37.4717 576.613 34.3525 614.305 c 1,8,9
 31.5811 666.275 31.5811 666.275 54.0508 709.838 c 0,10,11
 76.7002 753.75 76.7002 753.75 103.638 764.974 c 2,12,-1
 148.929 783.845 l 1,13,-1
 121.883 734.669 l 2,14,15
 115.76 723.538 115.76 723.538 115.092 693.445 c 0,16,17
 114.534 668.361 114.534 668.361 119.083 659.492 c 1,18,19
 134.68 643.982 134.68 643.982 135.901 621.494 c 1,0,1
EndSplineSet
EndChar

StartChar: quoteright
Encoding: 8217 8217 178
Width: 169
GlyphClass: 2
Flags: W
LayerCount: 2
Fore
SplineSet
48.5859 679.139 m 1,0,1
 44.4932 706.049 44.4932 706.049 56.998 728.075 c 0,2,3
 68.7266 748.733 68.7266 748.733 85.8955 756.349 c 0,4,5
 105.986 765.26 105.986 765.26 125.511 748.481 c 0,6,7
 143.821 732.745 143.821 732.745 149.055 696.11 c 1,8,9
 154.602 645.258 154.602 645.258 134.938 599.531 c 0,10,11
 115.13 553.465 115.13 553.465 90.0898 539.694 c 2,12,-1
 46.1836 515.545 l 1,13,-1
 69.7012 567.805 l 2,14,15
 74.6182 578.733 74.6182 578.733 73.2695 609.92 c 0,16,17
 72.1572 635.635 72.1572 635.635 67.5869 642.021 c 1,18,19
 50.4443 656.942 50.4443 656.942 48.5859 679.139 c 1,0,1
EndSplineSet
EndChar

StartChar: quotedblleft
Encoding: 8220 8220 179
Width: 264
GlyphClass: 2
Flags: W
LayerCount: 2
Fore
SplineSet
246.705 624.302 m 0,0,1
 248.643 597.368 248.643 597.368 235.291 576.506 c 0,2,3
 222.278 556.172 222.278 556.172 203.768 550.562 c 0,4,5
 182.936 544.25 182.936 544.25 164.803 562.383 c 0,6,7
 147.599 579.586 147.599 579.586 144.488 615.869 c 0,8,-1
 144.413 617.112 l 1,9,10
 142.59 668.379 142.59 668.379 164.47 711.68 c 0,11,12
 186.721 755.717 186.721 755.717 213.737 766.974 c 2,13,-1
 261.427 786.844 l 1,14,-1
 231.7 736.173 l 2,15,16
 225.927 726.331 225.927 726.331 225.596 696.226 c 0,17,18
 225.318 670.912 225.318 670.912 229.33 662.345 c 1,19,20
 244.982 646.802 244.982 646.802 246.705 624.302 c 0,0,1
148.4 621.494 m 1,21,22
 150.955 593.797 150.955 593.797 136.916 573.441 c 0,23,24
 123.769 554.378 123.769 554.378 106.329 548.247 c 0,25,26
 85.6191 540.966 85.6191 540.966 67.2021 559.383 c 0,27,28
 49.9717 576.613 49.9717 576.613 46.8525 614.305 c 1,29,30
 44.0811 666.275 44.0811 666.275 66.5498 709.838 c 0,31,32
 89.1992 753.75 89.1992 753.75 116.138 764.974 c 2,33,-1
 161.429 783.845 l 1,34,-1
 134.382 734.669 l 2,35,36
 128.26 723.538 128.26 723.538 127.591 693.445 c 0,37,38
 127.034 668.361 127.034 668.361 131.583 659.492 c 1,39,40
 147.18 643.982 147.18 643.982 148.4 621.494 c 1,21,22
EndSplineSet
EndChar

StartChar: quotedblright
Encoding: 8221 8221 180
Width: 319
GlyphClass: 2
Flags: W
LayerCount: 2
Fore
SplineSet
170.095 682.034 m 1,0,1
 165.967 707.796 165.967 707.796 178.361 730.331 c 0,2,3
 190.248 751.943 190.248 751.943 207.834 759.034 c 0,4,5
 227.521 766.973 227.521 766.973 246.725 751.221 c 0,6,7
 265.286 735.995 265.286 735.995 270.559 699.081 c 1,8,9
 276.096 647.173 276.096 647.173 256.398 601.939 c 0,10,11
 236.729 556.765 236.729 556.765 212.069 541.97 c 2,12,-1
 166.322 514.521 l 1,13,-1
 191.2 569.805 l 2,14,15
 196.118 580.732 196.118 580.732 194.769 611.92 c 0,16,17
 193.64 638.042 193.64 638.042 188.739 645.308 c 1,18,19
 171.886 660.638 171.886 660.638 170.095 682.034 c 1,0,1
62.0859 679.139 m 1,20,21
 57.9922 706.049 57.9922 706.049 70.498 728.075 c 0,22,23
 82.2266 748.733 82.2266 748.733 99.3955 756.349 c 0,24,25
 119.485 765.26 119.485 765.26 139.011 748.481 c 0,26,27
 157.321 732.745 157.321 732.745 162.555 696.11 c 1,28,29
 168.102 645.258 168.102 645.258 148.438 599.531 c 0,30,31
 128.63 553.465 128.63 553.465 103.59 539.694 c 2,32,-1
 59.6836 515.545 l 1,33,-1
 83.2002 567.805 l 2,34,35
 88.1182 578.733 88.1182 578.733 86.7695 609.92 c 0,36,37
 85.6572 635.635 85.6572 635.635 81.0869 642.021 c 1,38,39
 63.9443 656.942 63.9443 656.942 62.0859 679.139 c 1,20,21
EndSplineSet
EndChar

StartChar: Euro
Encoding: 8364 8364 182
Width: 641
Flags: W
LayerCount: 2
Fore
SplineSet
547.995 313 m 1,0,-1
 512.287 191 l 1,1,-1
 67.0137 191 l 1,2,-1
 102.721 313 l 1,3,-1
 547.995 313 l 1,0,-1
590.337 475 m 1,4,-1
 551.938 355 l 1,5,-1
 72.6807 355 l 1,6,-1
 103.881 475 l 1,7,-1
 590.337 475 l 1,4,-1
632.03 648.725 m 1,8,-1
 594.05 506.3 l 1,9,-1
 576.56 547.652 l 2,10,11
 570.381 562.258 570.381 562.258 538.311 578.456 c 0,12,13
 511.844 591.824 511.844 591.824 464.513 594.014 c 0,14,15
 404.589 596.786 404.589 596.786 347.544 552.509 c 0,16,17
 290.383 508.141 290.383 508.141 263.606 436.552 c 0,18,19
 228.057 341.198 228.057 341.198 255.667 250.085 c 0,20,21
 283.35 158.732 283.35 158.732 360.663 114.128 c 0,22,23
 398.416 91.9199 398.416 91.9199 439.79 90.9971 c 0,24,25
 481.623 90.0635 481.623 90.0635 518.437 106.796 c 0,26,27
 555.854 123.804 555.854 123.804 590.794 156.084 c 2,28,-1
 616.305 179.653 l 1,29,-1
 616.305 32.1523 l 1,30,-1
 611.066 26.2012 l 2,31,32
 572.647 -17.458 572.647 -17.458 543.588 -25.0742 c 0,33,34
 517.641 -31.875 517.641 -31.875 470.068 -35.4639 c 0,35,36
 422.026 -39.0879 422.026 -39.0879 379.199 -31.291 c 0,37,38
 335.354 -23.3096 335.354 -23.3096 306.56 -4.76855 c 0,39,40
 189.761 70.8574 189.761 70.8574 150.841 206.759 c 0,41,42
 111.819 343.016 111.819 343.016 167.405 491.458 c 0,43,44
 208.668 601.983 208.668 601.983 290.441 663.626 c 0,45,46
 372.039 725.137 372.039 725.137 466.559 719.983 c 0,47,48
 515.529 717.624 515.529 717.624 573.889 688.049 c 0,49,50
 605.619 672.182 605.619 672.182 622.371 657.304 c 2,51,-1
 632.03 648.725 l 1,8,-1
EndSplineSet
EndChar

StartChar: brokenbar
Encoding: 166 166 187
Width: 186
Flags: W
LayerCount: 2
Fore
SplineSet
55.7129 335 m 1,0,-1
 154.761 335 l 1,1,-1
 157.466 -20 l 1,2,-1
 55.7129 -20 l 1,3,-1
 55.7129 335 l 1,0,-1
56.5645 716 m 1,4,-1
 155.765 716 l 1,5,-1
 154.86 367 l 1,6,-1
 55.6611 367 l 1,7,-1
 56.5645 716 l 1,4,-1
EndSplineSet
EndChar

